<svg xmlns="http://www.w3.org/2000/svg" width="34pt" height="34pt" viewBox="0 0 34 34"><path d="M15.36 9.059c.085-.961.273-1.895.542-2.801a11.05 11.05 0 0 0-7.484 9.523c-.531 6.055 3.965 11.387 10.043 11.918q.493.042.98.043c3.543 0 6.805-1.687 8.868-4.523-.356-.008-.715-.02-1.051-.047-7.184-.629-12.524-6.945-11.899-14.113" style="stroke:none;fill-rule:nonzero;fill:#ffea00;fill-opacity:1"/><path d="M18.46 27.7c-6.077-.532-10.57-5.864-10.042-11.919a11.05 11.05 0 0 1 7.484-9.523c-.27.906-.457 1.84-.543 2.8-.625 7.169 4.711 13.485 11.899 14.114.336.027.695.039 1.05.047a10.93 10.93 0 0 1-9.847 4.48m11.105-5.097a1.4 1.4 0 0 0-1.214-.782c-.332-.008-.66-.02-.973-.043-6.414-.562-11.18-6.21-10.625-12.593.074-.832.238-1.684.488-2.528a1.395 1.395 0 0 0-1.34-1.797c-.148 0-.3.024-.445.07a12.45 12.45 0 0 0-8.434 10.727c-.289 3.301.73 6.52 2.868 9.055a12.37 12.37 0 0 0 8.445 4.383q.552.047 1.105.047c3.997 0 7.641-1.856 10-5.098.305-.418.356-.973.125-1.441" style="stroke:none;fill-rule:nonzero;fill:#2c404b;fill-opacity:1"/><path d="M13.262 19.938a3.89 3.89 0 0 0-3.84 3.277 2.45 2.45 0 0 0-3.73 2.094 2.43 2.43 0 0 0 1.585 2.293h6.899a3.884 3.884 0 0 0 2.972-3.774 3.893 3.893 0 0 0-3.886-3.89" style="stroke:none;fill-rule:nonzero;fill:#f5f6f7;fill-opacity:1"/><path d="M7.277 27.602a2.43 2.43 0 0 1-1.586-2.293 2.45 2.45 0 0 1 3.73-2.094 3.89 3.89 0 0 1 3.84-3.277 3.893 3.893 0 0 1 3.887 3.89 3.884 3.884 0 0 1-2.972 3.774Zm5.985-9.063a5.25 5.25 0 0 0-4.739 2.934 3.861 3.861 0 0 0-4.234 3.836 3.85 3.85 0 0 0 2.504 3.605l.234.086h7.317l.16-.04a5.26 5.26 0 0 0 4.043-5.132 5.29 5.29 0 0 0-5.285-5.289" style="stroke:none;fill-rule:nonzero;fill:#2c404b;fill-opacity:1"/></svg>