<svg xmlns="http://www.w3.org/2000/svg" width="34pt" height="34pt" viewBox="0 0 34 34"><path d="M14.414 10.02c.066-.77.219-1.52.434-2.243a8.84 8.84 0 0 0-5.989 7.618c-.421 4.843 3.172 9.109 8.036 9.535q.392.035.785.035a8.75 8.75 0 0 0 7.093-3.617c-.285-.008-.574-.016-.84-.04-5.75-.503-10.019-5.554-9.519-11.288" style="stroke:none;fill-rule:nonzero;fill:#ffea00;fill-opacity:1"/><path d="M16.895 24.93c-4.864-.426-8.457-4.692-8.036-9.535a8.84 8.84 0 0 1 5.989-7.618 11.3 11.3 0 0 0-.434 2.243c-.5 5.73 3.77 10.785 9.52 11.285.265.027.554.035.84.043a8.74 8.74 0 0 1-7.88 3.582m9.137-4.2c-.23-.468-.699-.77-1.218-.78-.258-.009-.516-.016-.758-.036a9.03 9.03 0 0 1-6.157-3.191 8.93 8.93 0 0 1-2.09-6.582c.06-.645.184-1.309.38-1.965.152-.5.007-1.043-.368-1.406a1.4 1.4 0 0 0-1.418-.32 10.24 10.24 0 0 0-6.937 8.823 10.12 10.12 0 0 0 2.36 7.45 10.18 10.18 0 0 0 6.945 3.601q.457.041.91.04c3.285 0 6.285-1.528 8.226-4.192a1.41 1.41 0 0 0 .125-1.442" style="stroke:none;fill-rule:nonzero;fill:#2c404b;fill-opacity:1"/><path d="M19.992 13.773c-3.152 0-5.758 2.317-6.238 5.32A3.984 3.984 0 0 0 7.69 22.5a3.95 3.95 0 0 0 2.579 3.724h11.214a6.306 6.306 0 0 0 4.828-6.13 6.326 6.326 0 0 0-6.32-6.32" style="stroke:none;fill-rule:nonzero;fill:#f5f6f7;fill-opacity:1"/><path d="M10.27 26.223A3.95 3.95 0 0 1 7.69 22.5a3.986 3.986 0 0 1 6.063-3.406c.48-3.004 3.086-5.32 6.238-5.32a6.32 6.32 0 0 1 6.317 6.32 6.3 6.3 0 0 1-4.829 6.129Zm9.722-13.848a7.68 7.68 0 0 0-7.172 4.855A5.396 5.396 0 0 0 6.29 22.5a5.38 5.38 0 0 0 3.496 5.035l.235.09h11.628l.16-.04a7.68 7.68 0 0 0 5.903-7.491c0-4.258-3.461-7.719-7.719-7.719" style="stroke:none;fill-rule:nonzero;fill:#2c404b;fill-opacity:1"/></svg>