<svg xmlns="http://www.w3.org/2000/svg" width="34pt" height="34pt" viewBox="0 0 34 34"><path d="M13.094 8.57c.066-.77.215-1.515.433-2.242a8.84 8.84 0 0 0-5.988 7.617c-.426 4.844 3.172 9.114 8.031 9.535q.4.036.785.036a8.75 8.75 0 0 0 7.098-3.618c-.289-.007-.574-.015-.844-.039-5.746-.504-10.02-5.554-9.515-11.289" style="stroke:none;fill-rule:nonzero;fill:#ffea00;fill-opacity:1"/><path d="M15.57 23.48c-4.86-.421-8.457-4.69-8.03-9.535a8.84 8.84 0 0 1 5.987-7.617 11 11 0 0 0-.433 2.242c-.504 5.735 3.77 10.785 9.515 11.29.27.023.555.03.844.038a8.74 8.74 0 0 1-7.883 3.582m9.137-4.199a1.4 1.4 0 0 0-1.215-.781c-.258-.008-.52-.016-.762-.035a9.03 9.03 0 0 1-6.152-3.192 8.92 8.92 0 0 1-2.09-6.578 10 10 0 0 1 .38-1.968 1.396 1.396 0 0 0-1.34-1.797q-.228 0-.45.07a10.25 10.25 0 0 0-6.933 8.824 10.1 10.1 0 0 0 2.359 7.45 10.2 10.2 0 0 0 6.945 3.605c.301.023.606.039.906.039 3.29 0 6.286-1.531 8.227-4.195a1.39 1.39 0 0 0 .125-1.442" style="stroke:none;fill-rule:nonzero;fill:#2c404b;fill-opacity:1"/><path d="M18.672 12.324a6.325 6.325 0 0 0-6.238 5.32 3.94 3.94 0 0 0-2.075-.581 3.984 3.984 0 0 0-3.992 3.988 3.95 3.95 0 0 0 2.582 3.722H20.16a6.306 6.306 0 0 0 4.828-6.128c0-3.485-2.832-6.32-6.316-6.32" style="stroke:none;fill-rule:nonzero;fill:#f5f6f7;fill-opacity:1"/><path d="M8.95 24.773a3.95 3.95 0 0 1-2.583-3.722 3.984 3.984 0 0 1 3.992-3.988c.758 0 1.477.21 2.075.582a6.325 6.325 0 0 1 6.238-5.32c3.484 0 6.316 2.835 6.316 6.32a6.306 6.306 0 0 1-4.828 6.128Zm9.722-13.847A7.68 7.68 0 0 0 11.5 15.78a5.396 5.396 0 0 0-6.531 5.27 5.39 5.39 0 0 0 3.496 5.039l.234.086h11.63l.16-.04a7.68 7.68 0 0 0 5.898-7.491c0-4.258-3.461-7.72-7.715-7.72" style="stroke:none;fill-rule:nonzero;fill:#2c404b;fill-opacity:1"/><path d="M23.746 20.012a3.89 3.89 0 0 0-3.84 3.273 2.4 2.4 0 0 0-1.277-.36 2.45 2.45 0 0 0-2.457 2.454c0 1.055.656 1.95 1.59 2.293h6.898a3.884 3.884 0 0 0 2.973-3.774 3.89 3.89 0 0 0-3.887-3.886" style="stroke:none;fill-rule:nonzero;fill:#f5f6f7;fill-opacity:1"/><path d="M17.762 27.672a2.43 2.43 0 0 1-1.59-2.293 2.45 2.45 0 0 1 2.457-2.453c.465 0 .91.129 1.277.36a3.89 3.89 0 0 1 3.84-3.274 3.89 3.89 0 0 1 3.887 3.886 3.884 3.884 0 0 1-2.973 3.774Zm5.984-9.063a5.26 5.26 0 0 0-4.742 2.934 3.861 3.861 0 0 0-4.23 3.836 3.85 3.85 0 0 0 2.503 3.605l.235.086h7.316l.16-.039a5.26 5.26 0 0 0 4.043-5.133 5.29 5.29 0 0 0-5.285-5.289" style="stroke:none;fill-rule:nonzero;fill:#2c404b;fill-opacity:1"/></svg>