<svg xmlns="http://www.w3.org/2000/svg" width="34pt" height="34pt" viewBox="0 0 34 34"><path d="M14.414 5.621c.066-.773.219-1.52.434-2.242a8.84 8.84 0 0 0-5.989 7.617c-.421 4.844 3.172 9.11 8.036 9.535q.392.036.785.035a8.75 8.75 0 0 0 7.093-3.617c-.285-.012-.574-.02-.84-.043-5.75-.5-10.019-5.554-9.519-11.285" style="stroke:none;fill-rule:nonzero;fill:#ffea00;fill-opacity:1"/><path d="M16.895 20.531c-4.864-.426-8.457-4.691-8.036-9.535a8.84 8.84 0 0 1 5.989-7.621 11.3 11.3 0 0 0-.434 2.246c-.5 5.73 3.77 10.781 9.52 11.285.265.024.554.032.84.04a8.74 8.74 0 0 1-7.88 3.585m9.137-4.203c-.23-.465-.699-.765-1.218-.781-.258-.008-.516-.012-.758-.035a9.03 9.03 0 0 1-6.157-3.192 8.9 8.9 0 0 1-2.09-6.578c.06-.648.184-1.308.38-1.965.152-.5.007-1.043-.368-1.406a1.4 1.4 0 0 0-1.418-.32 10.24 10.24 0 0 0-6.937 8.82 10.11 10.11 0 0 0 2.36 7.45 10.18 10.18 0 0 0 6.945 3.605q.457.04.91.039c3.285 0 6.285-1.527 8.226-4.192.305-.421.352-.976.125-1.445" style="stroke:none;fill-rule:nonzero;fill:#2c404b;fill-opacity:1"/><path d="M19.992 9.375c-3.152 0-5.758 2.313-6.238 5.32a3.9 3.9 0 0 0-2.074-.586 3.983 3.983 0 0 0-3.989 3.989 3.95 3.95 0 0 0 2.579 3.726h11.214a6.31 6.31 0 0 0 4.828-6.133c0-3.484-2.835-6.316-6.32-6.316" style="stroke:none;fill-rule:nonzero;fill:#cfd6dc;fill-opacity:1"/><path d="M10.27 21.824a3.95 3.95 0 0 1-2.579-3.726 3.983 3.983 0 0 1 6.063-3.403c.48-3.008 3.086-5.32 6.238-5.32a6.32 6.32 0 0 1 6.317 6.316 6.3 6.3 0 0 1-4.829 6.133Zm9.722-13.851a7.68 7.68 0 0 0-7.172 4.859 5.396 5.396 0 0 0-6.531 5.266c0 2.242 1.406 4.27 3.496 5.039l.235.086h11.628l.16-.04a7.68 7.68 0 0 0 5.903-7.492c0-4.254-3.461-7.718-7.719-7.718M7.664 32.023a.699.699 0 0 1-.602-1.055l3.5-6a.7.7 0 0 1 1.207.707l-3.5 6a.7.7 0 0 1-.605.348M12.566 32.023a.7.7 0 0 1-.351-.097.697.697 0 0 1-.254-.957l3.5-6a.7.7 0 0 1 1.21.707l-3.5 6a.7.7 0 0 1-.605.347M17.465 32.023a.699.699 0 0 1-.602-1.055l3.5-6a.7.7 0 0 1 1.207.707l-3.5 6a.7.7 0 0 1-.605.348" style="stroke:none;fill-rule:nonzero;fill:#2c404b;fill-opacity:1"/></svg>