<svg xmlns="http://www.w3.org/2000/svg" width="34pt" height="34pt" viewBox="0 0 34 34"><path d="M14.414 5.129c.066-.77.219-1.516.434-2.242a8.85 8.85 0 0 0-5.989 7.617c-.421 4.844 3.172 9.113 8.036 9.539q.392.035.785.035a8.75 8.75 0 0 0 7.093-3.621c-.285-.008-.574-.016-.84-.039-5.75-.504-10.019-5.555-9.519-11.29" style="stroke:none;fill-rule:nonzero;fill:#ffea00;fill-opacity:1"/><path d="M16.895 20.043c-4.864-.426-8.457-4.691-8.036-9.535a8.84 8.84 0 0 1 5.989-7.621 11.3 11.3 0 0 0-.434 2.246c-.5 5.73 3.77 10.781 9.52 11.285.265.023.554.031.84.039a8.74 8.74 0 0 1-7.094 3.617q-.393.002-.785-.031m9.136-4.203c-.23-.465-.699-.766-1.218-.781-.258-.008-.516-.016-.758-.036a9.03 9.03 0 0 1-6.157-3.191 8.92 8.92 0 0 1-2.09-6.578 10 10 0 0 1 .38-1.969c.152-.5.007-1.043-.368-1.402a1.4 1.4 0 0 0-1.418-.32 10.24 10.24 0 0 0-6.937 8.82 10.11 10.11 0 0 0 2.36 7.449 10.18 10.18 0 0 0 6.945 3.605q.457.041.91.04c3.285 0 6.285-1.528 8.226-4.196.305-.418.352-.972.125-1.441" style="stroke:none;fill-rule:nonzero;fill:#2c404b;fill-opacity:1"/><path d="M19.992 8.887c-3.152 0-5.758 2.312-6.238 5.32a3.9 3.9 0 0 0-2.074-.586A3.983 3.983 0 0 0 7.69 17.61a3.95 3.95 0 0 0 2.579 3.727h11.214a6.31 6.31 0 0 0 4.828-6.133c0-3.484-2.835-6.316-6.32-6.316" style="stroke:none;fill-rule:nonzero;fill:#cfd6dc;fill-opacity:1"/><path d="M10.27 21.336a3.95 3.95 0 0 1-2.579-3.727 3.983 3.983 0 0 1 3.989-3.988c.758 0 1.476.211 2.074.586.48-3.008 3.086-5.32 6.238-5.32a6.32 6.32 0 0 1 6.317 6.316 6.306 6.306 0 0 1-4.829 6.133Zm9.722-13.852a7.68 7.68 0 0 0-7.172 4.856 5.396 5.396 0 0 0-6.531 5.27c0 2.242 1.406 4.269 3.496 5.038l.235.086h11.628l.16-.039a7.68 7.68 0 0 0 5.903-7.492c0-4.254-3.461-7.719-7.719-7.719M13.898 31.535a.7.7 0 0 1-.602-1.055l3.5-6a.7.7 0 0 1 1.207.707l-3.5 6a.7.7 0 0 1-.605.348M18.8 31.535a.7.7 0 0 1-.35-.098.7.7 0 0 1-.255-.957l3.5-6a.7.7 0 0 1 1.211.707l-3.5 6a.7.7 0 0 1-.605.348" style="stroke:none;fill-rule:nonzero;fill:#2c404b;fill-opacity:1"/><path d="M8 32.512a.704.704 0 0 1-.61-1.047L10.63 25.8l-3.492.695a.69.69 0 0 1-.715-.293.68.68 0 0 1-.008-.77l5.5-8.503a.7.7 0 1 1 1.172.761l-4.598 7.11 3.375-.676a.702.702 0 0 1 .746 1.035l-4 7a.71.71 0 0 1-.609.352" style="stroke:none;fill-rule:nonzero;fill:#2c404b;fill-opacity:1"/></svg>