<svg xmlns="http://www.w3.org/2000/svg" width="34pt" height="34pt" viewBox="0 0 34 34"><path d="M14.414 5.418c.066-.77.219-1.516.434-2.242a8.84 8.84 0 0 0-5.989 7.617c-.421 4.844 3.172 9.113 8.036 9.539q.392.03.785.031a8.74 8.74 0 0 0 7.093-3.617c-.285-.008-.574-.016-.84-.039-5.75-.504-10.019-5.555-9.519-11.289" style="stroke:none;fill-rule:nonzero;fill:#ffea00;fill-opacity:1"/><path d="M16.895 20.332c-4.864-.426-8.457-4.695-8.036-9.539a8.84 8.84 0 0 1 5.989-7.617 11.3 11.3 0 0 0-.434 2.242c-.5 5.734 3.77 10.785 9.52 11.289.265.023.554.031.84.04a8.74 8.74 0 0 1-7.094 3.616q-.393 0-.785-.031m9.136-4.203c-.23-.465-.699-.766-1.218-.781a15 15 0 0 1-.758-.036 9.03 9.03 0 0 1-6.157-3.19 8.92 8.92 0 0 1-2.09-6.579 10 10 0 0 1 .38-1.969 1.395 1.395 0 0 0-1.34-1.797c-.149 0-.301.024-.446.07a10.25 10.25 0 0 0-6.937 8.825 10.12 10.12 0 0 0 2.36 7.45 10.18 10.18 0 0 0 6.945 3.605c.304.023.609.039.91.039 3.285 0 6.285-1.528 8.226-4.196.305-.418.352-.972.125-1.441" style="stroke:none;fill-rule:nonzero;fill:#2c404b;fill-opacity:1"/><path d="M19.992 9.176c-3.152 0-5.758 2.312-6.238 5.316a3.94 3.94 0 0 0-2.074-.582 3.983 3.983 0 0 0-3.989 3.988 3.95 3.95 0 0 0 2.579 3.723h11.214a6.3 6.3 0 0 0 4.828-6.129c0-3.484-2.835-6.316-6.32-6.316" style="stroke:none;fill-rule:nonzero;fill:#cfd6dc;fill-opacity:1"/><path d="M10.27 21.625a3.955 3.955 0 0 1-2.579-3.727 3.983 3.983 0 0 1 3.989-3.988c.758 0 1.476.211 2.074.582.48-3.004 3.086-5.316 6.238-5.316a6.32 6.32 0 0 1 6.317 6.316 6.306 6.306 0 0 1-4.829 6.133Zm9.722-13.852a7.68 7.68 0 0 0-7.172 4.856 5.396 5.396 0 0 0-6.531 5.27c0 2.242 1.406 4.269 3.496 5.038l.235.086h11.628l.16-.039a7.68 7.68 0 0 0 5.903-7.492c0-4.258-3.461-7.719-7.719-7.719M15.117 29.316l-1.71-.992 1.71-.996a.705.705 0 0 0 .258-.953.695.695 0 0 0-.953-.258l-1.711.992v-1.984a.7.7 0 0 0-.695-.703.7.7 0 0 0-.696.703v1.984l-1.71-.992a.69.69 0 0 0-.95.258.7.7 0 0 0 .254.953l1.711.996-1.71.992a.705.705 0 0 0-.255.957.7.7 0 0 0 .602.352.7.7 0 0 0 .347-.094l1.711-.996v1.988c0 .387.313.7.696.7a.7.7 0 0 0 .695-.7v-1.988l1.71.996c.11.063.231.094.349.094a.7.7 0 0 0 .605-.352.71.71 0 0 0-.258-.957M17.566 32.223a.699.699 0 0 1-.605-1.05l3.5-6.001a.7.7 0 0 1 .957-.254c.336.195.45.625.254.957l-3.5 6a.7.7 0 0 1-.606.348" style="stroke:none;fill-rule:nonzero;fill:#2c404b;fill-opacity:1"/></svg>