<svg xmlns="http://www.w3.org/2000/svg" width="34pt" height="34pt" viewBox="0 0 34 34"><path d="M15.102 5.418c.066-.77.218-1.516.433-2.242a8.84 8.84 0 0 0-5.988 7.617c-.422 4.844 3.172 9.113 8.035 9.539q.393.03.785.031a8.74 8.74 0 0 0 7.094-3.617c-.285-.008-.574-.016-.84-.039-5.75-.504-10.023-5.555-9.52-11.289" style="stroke:none;fill-rule:nonzero;fill:#ffea00;fill-opacity:1"/><path d="M17.582 20.332c-4.863-.426-8.457-4.695-8.035-9.539a8.84 8.84 0 0 1 5.988-7.617 11 11 0 0 0-.433 2.242c-.5 5.734 3.77 10.785 9.52 11.289.265.023.554.031.839.04a8.74 8.74 0 0 1-7.094 3.616q-.393 0-.785-.031m9.137-4.203c-.23-.465-.7-.766-1.219-.781a15 15 0 0 1-.758-.036 9.03 9.03 0 0 1-6.156-3.19 8.92 8.92 0 0 1-2.09-6.579 10 10 0 0 1 .379-1.969c.148-.5.008-1.043-.367-1.406a1.41 1.41 0 0 0-1.418-.32 10.25 10.25 0 0 0-6.938 8.824 10.12 10.12 0 0 0 2.36 7.45 10.18 10.18 0 0 0 6.945 3.605c.3.023.61.039.91.039 3.285 0 6.281-1.528 8.227-4.196.304-.418.351-.972.125-1.441" style="stroke:none;fill-rule:nonzero;fill:#2c404b;fill-opacity:1"/><path d="M20.68 9.176c-3.153 0-5.758 2.312-6.239 5.316a3.94 3.94 0 0 0-2.074-.582 3.986 3.986 0 0 0-3.992 3.988 3.95 3.95 0 0 0 2.582 3.723h11.211a6.3 6.3 0 0 0 4.828-6.129 6.32 6.32 0 0 0-6.316-6.316" style="stroke:none;fill-rule:nonzero;fill:#cfd6dc;fill-opacity:1"/><path d="M10.957 21.625a3.955 3.955 0 0 1-2.578-3.727 3.983 3.983 0 0 1 3.988-3.988c.758 0 1.477.211 2.074.582.48-3.004 3.086-5.316 6.239-5.316a6.32 6.32 0 0 1 6.316 6.316 6.306 6.306 0 0 1-4.828 6.133ZM20.68 7.773a7.68 7.68 0 0 0-7.172 4.856 5.396 5.396 0 0 0-6.531 5.27c0 2.242 1.406 4.269 3.496 5.038l.234.086h11.629l.16-.039a7.68 7.68 0 0 0 5.902-7.492c0-4.258-3.464-7.719-7.718-7.719M12.156 29.316l-1.71-.992 1.71-.996a.7.7 0 0 0 .254-.953.69.69 0 0 0-.95-.258l-1.71.992v-1.984a.7.7 0 0 0-.695-.703c-.387 0-.7.316-.7.703v1.984l-1.71-.992a.69.69 0 0 0-.95.258.7.7 0 0 0 .254.953l1.711.996-1.71.992a.702.702 0 0 0 .352 1.309.7.7 0 0 0 .343-.094l1.71-.996v1.988a.699.699 0 1 0 1.395 0v-1.988l1.71.996q.165.094.349.094a.7.7 0 0 0 .601-.352.705.705 0 0 0-.254-.957M14.602 32.223a.7.7 0 0 1-.352-.094.7.7 0 0 1-.25-.957l3.5-6a.7.7 0 0 1 .957-.254.7.7 0 0 1 .25.957l-3.5 6a.7.7 0 0 1-.605.348M19.504 32.223a.699.699 0 0 1-.605-1.05l3.5-6.001a.7.7 0 0 1 .956-.254c.336.195.45.625.254.957l-3.5 6a.71.71 0 0 1-.605.348" style="stroke:none;fill-rule:nonzero;fill:#2c404b;fill-opacity:1"/></svg>