<svg xmlns="http://www.w3.org/2000/svg" width="34pt" height="34pt" viewBox="0 0 34 34"><path d="M15.453 5.418c.067-.77.215-1.516.43-2.242a8.85 8.85 0 0 0-5.985 7.617c-.425 4.844 3.172 9.113 8.032 9.539.261.02.527.031.785.031a8.74 8.74 0 0 0 7.094-3.617c-.286-.008-.57-.016-.84-.039-5.75-.504-10.02-5.555-9.516-11.289" style="stroke:none;fill-rule:nonzero;fill:#ffea00;fill-opacity:1"/><path d="M17.93 20.332c-4.86-.426-8.457-4.695-8.032-9.539a8.85 8.85 0 0 1 5.985-7.617 11.6 11.6 0 0 0-.434 2.242c-.5 5.734 3.77 10.785 9.52 11.289.27.023.554.031.84.04a8.74 8.74 0 0 1-7.094 3.616c-.258 0-.524-.011-.785-.031m9.136-4.203a1.4 1.4 0 0 0-1.214-.781c-.258-.008-.52-.016-.762-.036a9.02 9.02 0 0 1-6.152-3.19 8.92 8.92 0 0 1-2.09-6.579 10 10 0 0 1 .379-1.969c.148-.5.003-1.043-.372-1.406a1.4 1.4 0 0 0-1.418-.32 10.25 10.25 0 0 0-6.933 8.824 10.11 10.11 0 0 0 2.355 7.45 10.2 10.2 0 0 0 6.95 3.605c.3.023.605.039.906.039 3.289 0 6.285-1.528 8.226-4.196a1.39 1.39 0 0 0 .125-1.441" style="stroke:none;fill-rule:nonzero;fill:#2c404b;fill-opacity:1"/><path d="M21.031 9.176a6.32 6.32 0 0 0-6.238 5.316 3.94 3.94 0 0 0-2.078-.582 3.983 3.983 0 0 0-3.988 3.988 3.94 3.94 0 0 0 2.582 3.723h11.21a6.3 6.3 0 0 0 4.829-6.129 6.32 6.32 0 0 0-6.317-6.316" style="stroke:none;fill-rule:nonzero;fill:#cfd6dc;fill-opacity:1"/><path d="M11.309 21.625a3.96 3.96 0 0 1-2.582-3.727 3.984 3.984 0 0 1 3.992-3.988c.758 0 1.472.211 2.074.582a6.32 6.32 0 0 1 6.234-5.316 6.32 6.32 0 0 1 6.32 6.316 6.31 6.31 0 0 1-4.827 6.133Zm9.718-13.852a7.68 7.68 0 0 0-7.168 4.856 5.396 5.396 0 0 0-6.531 5.27c0 2.242 1.402 4.269 3.496 5.038l.235.086h11.625l.164-.039a7.68 7.68 0 0 0 5.898-7.492c0-4.258-3.46-7.719-7.719-7.719M20.105 29.316l-1.71-.992 1.71-.996a.7.7 0 0 0 .254-.953.69.69 0 0 0-.949-.258l-1.71.992v-1.984a.7.7 0 0 0-.696-.703.7.7 0 0 0-.695.703v1.984l-1.711-.992a.695.695 0 0 0-.953.258.7.7 0 0 0 .257.953l1.707.996-1.707.992a.702.702 0 0 0 .348 1.309.7.7 0 0 0 .348-.094l1.71-.996v1.988a.695.695 0 1 0 1.391 0v-1.988l1.711.996q.166.094.348.094a.7.7 0 0 0 .601-.352.705.705 0 0 0-.254-.957M11.805 29.316l-1.711-.992 1.71-.996a.7.7 0 0 0 .255-.953.69.69 0 0 0-.95-.258l-1.71.992v-1.984a.7.7 0 0 0-.696-.703.7.7 0 0 0-.695.703v1.984l-1.711-.992a.69.69 0 0 0-.95.258.697.697 0 0 0 .255.953l1.71.996-1.71.992a.701.701 0 0 0 .695 1.215l1.71-.996v1.988a.695.695 0 1 0 1.391 0v-1.988l1.711.996c.11.063.23.094.348.094a.7.7 0 0 0 .602-.352.705.705 0 0 0-.254-.957M22.55 32.223a.73.73 0 0 1-.35-.094.7.7 0 0 1-.25-.957l3.5-6a.7.7 0 0 1 .956-.254.7.7 0 0 1 .25.957l-3.5 6a.7.7 0 0 1-.605.348" style="stroke:none;fill-rule:nonzero;fill:#2c404b;fill-opacity:1"/></svg>