<svg xmlns="http://www.w3.org/2000/svg" width="34pt" height="34pt" viewBox="0 0 34 34"><path d="M15.527 5.418c.067-.77.215-1.516.434-2.242a8.84 8.84 0 0 0-5.988 7.617c-.426 4.844 3.172 9.113 8.03 9.539q.4.03.786.031a8.75 8.75 0 0 0 7.098-3.617c-.29-.008-.575-.016-.844-.039-5.746-.504-10.02-5.555-9.516-11.289" style="stroke:none;fill-rule:nonzero;fill:#ffea00;fill-opacity:1"/><path d="M18.004 20.332c-4.86-.426-8.457-4.695-8.031-9.539a8.84 8.84 0 0 1 5.988-7.617 11 11 0 0 0-.434 2.242c-.504 5.734 3.77 10.785 9.516 11.289.27.023.555.031.844.04a8.74 8.74 0 0 1-7.098 3.616q-.387 0-.785-.031m9.137-4.203a1.4 1.4 0 0 0-1.215-.781c-.258-.008-.52-.016-.762-.036a9.03 9.03 0 0 1-6.152-3.19 8.92 8.92 0 0 1-2.09-6.579 10 10 0 0 1 .379-1.969 1.396 1.396 0 0 0-1.34-1.797q-.226 0-.45.07a10.25 10.25 0 0 0-6.933 8.825 10.1 10.1 0 0 0 2.36 7.45 10.18 10.18 0 0 0 6.945 3.605c.3.023.605.039.906.039 3.29 0 6.285-1.528 8.227-4.196a1.39 1.39 0 0 0 .125-1.441M20.031 29.316l-1.71-.992 1.71-.996a.7.7 0 0 0 .254-.953.69.69 0 0 0-.95-.258l-1.71.992v-1.984a.7.7 0 0 0-.695-.703c-.387 0-.7.316-.7.703v1.984l-1.71-.992a.698.698 0 0 0-.691 1.21l1.706.997-1.707.992a.702.702 0 0 0 .348 1.309.7.7 0 0 0 .344-.094l1.71-.996v1.988a.699.699 0 1 0 1.395 0v-1.988l1.71.996q.165.094.349.094a.7.7 0 0 0 .601-.352.705.705 0 0 0-.254-.957M28.332 29.316l-1.71-.992 1.71-.996a.7.7 0 0 0-.7-1.21l-1.706.991v-1.984a.7.7 0 0 0-.7-.703.7.7 0 0 0-.695.703v1.984l-1.71-.992a.69.69 0 0 0-.95.258.7.7 0 0 0 .254.953l1.71.996-1.71.992a.705.705 0 0 0-.254.957.7.7 0 0 0 .602.352.7.7 0 0 0 .347-.094l1.711-.996v1.988a.698.698 0 1 0 1.395 0v-1.988l1.707.996q.17.094.347.094a.702.702 0 0 0 .352-1.309M11.73 29.316l-1.71-.992 1.71-.996a.7.7 0 0 0 .254-.953.69.69 0 0 0-.949-.258l-1.71.992v-1.984a.7.7 0 0 0-.696-.703.7.7 0 0 0-.695.703v1.984l-1.711-.992a.695.695 0 0 0-.953.258.7.7 0 0 0 .257.953l1.707.996-1.707.992a.702.702 0 0 0 .348 1.309.7.7 0 0 0 .348-.094l1.71-.996v1.988a.695.695 0 1 0 1.391 0v-1.988l1.711.996q.166.094.348.094a.7.7 0 0 0 .601-.352.705.705 0 0 0-.254-.957" style="stroke:none;fill-rule:nonzero;fill:#2c404b;fill-opacity:1"/><path d="M21.105 9.176a6.32 6.32 0 0 0-6.238 5.316 3.94 3.94 0 0 0-2.074-.582 3.984 3.984 0 0 0-3.992 3.988 3.95 3.95 0 0 0 2.582 3.723h11.21a6.3 6.3 0 0 0 4.829-6.129 6.32 6.32 0 0 0-6.317-6.316" style="stroke:none;fill-rule:nonzero;fill:#cfd6dc;fill-opacity:1"/><path d="M11.383 21.625A3.96 3.96 0 0 1 8.8 17.898a3.986 3.986 0 0 1 3.992-3.988c.758 0 1.477.211 2.074.582a6.32 6.32 0 0 1 6.238-5.316 6.32 6.32 0 0 1 6.317 6.316 6.31 6.31 0 0 1-4.828 6.133Zm9.722-13.852a7.68 7.68 0 0 0-7.171 4.856 5.396 5.396 0 0 0-6.531 5.27c0 2.242 1.406 4.269 3.495 5.038l.235.086h11.629l.16-.039a7.68 7.68 0 0 0 5.898-7.492c0-4.258-3.46-7.719-7.715-7.719" style="stroke:none;fill-rule:nonzero;fill:#2c404b;fill-opacity:1"/></svg>