<svg xmlns="http://www.w3.org/2000/svg" width="34pt" height="34pt" viewBox="0 0 34 34"><path d="M19.992 5.887c-3.152 0-5.758 2.312-6.238 5.32a3.984 3.984 0 0 0-6.063 3.406 3.95 3.95 0 0 0 2.579 3.723h11.214a6.31 6.31 0 0 0 4.828-6.133c0-3.484-2.835-6.316-6.32-6.316" style="stroke:none;fill-rule:nonzero;fill:#cfd6dc;fill-opacity:1"/><path d="M10.27 18.336a3.95 3.95 0 0 1-2.579-3.723 3.984 3.984 0 0 1 6.063-3.406c.48-3.008 3.086-5.32 6.238-5.32a6.32 6.32 0 0 1 6.317 6.316 6.3 6.3 0 0 1-4.829 6.133Zm9.722-13.848a7.675 7.675 0 0 0-7.172 4.856 5.396 5.396 0 0 0-6.531 5.27 5.38 5.38 0 0 0 3.496 5.034l.235.086h11.628l.16-.039a7.675 7.675 0 0 0 5.903-7.492c0-4.254-3.461-7.715-7.719-7.715M13.898 28.535a.73.73 0 0 1-.351-.094.7.7 0 0 1-.25-.957l3.5-6a.7.7 0 0 1 .957-.254.7.7 0 0 1 .25.957l-3.5 6a.7.7 0 0 1-.606.348M18.8 28.535a.699.699 0 0 1-.605-1.05l3.5-6a.7.7 0 0 1 .957-.255c.336.196.45.622.254.957l-3.5 6a.7.7 0 0 1-.605.348" style="stroke:none;fill-rule:nonzero;fill:#2c404b;fill-opacity:1"/><path d="M8 29.512a.7.7 0 0 1-.348-.09.703.703 0 0 1-.261-.957l3.238-5.664-3.492.699a.69.69 0 0 1-.715-.293.69.69 0 0 1-.008-.773l5.5-8.5a.696.696 0 0 1 .965-.207c.328.207.418.64.207.964l-4.598 7.11 3.375-.676a.702.702 0 0 1 .746 1.035l-4 7a.7.7 0 0 1-.609.352" style="stroke:none;fill-rule:nonzero;fill:#2c404b;fill-opacity:1"/></svg>