<svg xmlns="http://www.w3.org/2000/svg" width="34pt" height="34pt" viewBox="0 0 34 34"><path d="m12.172 26.316-1.711-.992 1.71-.992a.705.705 0 0 0 .255-.957.693.693 0 0 0-.95-.258l-1.71.992v-1.984a.695.695 0 1 0-1.39 0l-.001 1.984-1.71-.992a.701.701 0 0 0-.695 1.215l1.71.992-1.711.992a.7.7 0 0 0-.254.957.687.687 0 0 0 .95.258l1.71-.992v1.984a.695.695 0 1 0 1.39 0V26.54l1.712.992a.694.694 0 0 0 .949-.258.705.705 0 0 0-.254-.957M14.617 29.223a.7.7 0 0 1-.351-.094.7.7 0 0 1-.25-.957l3.5-6a.7.7 0 0 1 .957-.254.7.7 0 0 1 .25.957l-3.5 6a.69.69 0 0 1-.606.348M19.52 29.223a.699.699 0 0 1-.605-1.05l3.5-6.001a.706.706 0 0 1 .96-.254.7.7 0 0 1 .25.957l-3.5 6a.69.69 0 0 1-.605.348" style="stroke:none;fill-rule:nonzero;fill:#2c404b;fill-opacity:1"/><path d="M20.664 6.176a6.32 6.32 0 0 0-6.238 5.32 3.94 3.94 0 0 0-2.074-.586 3.984 3.984 0 0 0-3.993 3.992 3.94 3.94 0 0 0 2.582 3.723h11.211a6.31 6.31 0 0 0 4.828-6.133 6.32 6.32 0 0 0-6.316-6.316" style="stroke:none;fill-rule:nonzero;fill:#cfd6dc;fill-opacity:1"/><path d="M10.941 18.625a3.95 3.95 0 0 1-2.582-3.723 3.984 3.984 0 0 1 3.993-3.992c.757 0 1.476.215 2.074.586a6.32 6.32 0 0 1 6.238-5.32 6.32 6.32 0 0 1 6.316 6.316 6.31 6.31 0 0 1-4.828 6.133Zm9.723-13.848a7.67 7.67 0 0 0-7.172 4.856 5.396 5.396 0 0 0-6.531 5.27 5.38 5.38 0 0 0 3.496 5.034l.234.086h11.63l.16-.039a7.676 7.676 0 0 0 5.898-7.492c0-4.254-3.461-7.715-7.715-7.715" style="stroke:none;fill-rule:nonzero;fill:#2c404b;fill-opacity:1"/></svg>