<svg xmlns="http://www.w3.org/2000/svg" width="34pt" height="34pt" viewBox="0 0 34 34"><path d="m18.969 26.816-1.711-.992 1.71-.992a.705.705 0 0 0 .255-.957.693.693 0 0 0-.95-.258l-1.71.992v-1.984a.695.695 0 1 0-1.39 0l-.001 1.984-1.711-.992a.699.699 0 1 0-.695 1.215l1.707.992-1.707.992a.703.703 0 0 0-.258.957.694.694 0 0 0 .953.258l1.71-.992v1.984a.695.695 0 1 0 1.392 0V27.04l1.71.992a.694.694 0 0 0 .95-.258.705.705 0 0 0-.254-.957" style="stroke:none;fill-rule:nonzero;fill:#2c404b;fill-opacity:1"/><path d="M19.992 6.676c-3.152 0-5.758 2.312-6.238 5.32a3.984 3.984 0 0 0-6.063 3.406 3.95 3.95 0 0 0 2.579 3.723h11.214a6.31 6.31 0 0 0 4.828-6.133c0-3.484-2.835-6.316-6.32-6.316" style="stroke:none;fill-rule:nonzero;fill:#cfd6dc;fill-opacity:1"/><path d="M10.27 19.125a3.95 3.95 0 0 1-2.579-3.723 3.984 3.984 0 0 1 6.063-3.406c.48-3.008 3.086-5.32 6.238-5.32a6.32 6.32 0 0 1 6.317 6.316 6.3 6.3 0 0 1-4.829 6.133Zm9.722-13.848a7.675 7.675 0 0 0-7.172 4.856 5.396 5.396 0 0 0-6.531 5.27 5.38 5.38 0 0 0 3.496 5.034l.235.086h11.628l.16-.039a7.675 7.675 0 0 0 5.903-7.492c0-4.254-3.461-7.715-7.719-7.715" style="stroke:none;fill-rule:nonzero;fill:#2c404b;fill-opacity:1"/></svg>