<svg xmlns="http://www.w3.org/2000/svg" width="34pt" height="34pt" viewBox="0 0 34 34"><path d="M17 10.21c-3.742 0-6.79 3.048-6.79 6.79s3.048 6.79 6.79 6.79 6.79-3.048 6.79-6.79-3.048-6.79-6.79-6.79" style="stroke:none;fill-rule:nonzero;fill:#ffea00;fill-opacity:1"/><path d="M17 23.79c-3.742 0-6.79-3.048-6.79-6.79s3.048-6.79 6.79-6.79 6.79 3.048 6.79 6.79-3.048 6.79-6.79 6.79m0-14.977c-4.516 0-8.187 3.671-8.187 8.187s3.671 8.188 8.187 8.188 8.188-3.672 8.188-8.188S21.516 8.813 17 8.813M17 6.672a.7.7 0 0 1-.7-.703v-3.39a.7.7 0 1 1 1.4 0v3.39a.7.7 0 0 1-.7.703M17 32.125a.7.7 0 0 1-.7-.7v-3.394c0-.386.313-.703.7-.703s.7.317.7.703v3.395c0 .387-.313.699-.7.699M24.8 9.902a.701.701 0 0 1-.495-1.195l2.398-2.402a.703.703 0 0 1 .992.992l-2.402 2.398a.7.7 0 0 1-.492.207M6.8 27.898a.7.7 0 0 1-.495-.203.703.703 0 0 1 0-.992l2.402-2.398a.698.698 0 1 1 .988.988l-2.398 2.402a.7.7 0 0 1-.496.203M9.2 9.902a.7.7 0 0 1-.493-.207L6.305 7.297a.703.703 0 0 1 .992-.992l2.398 2.402A.701.701 0 0 1 9.2 9.902M27.2 27.898a.7.7 0 0 1-.497-.203l-2.398-2.402a.698.698 0 1 1 .988-.988l2.402 2.398a.703.703 0 0 1 0 .992.7.7 0 0 1-.496.203M5.969 17.7h-3.39a.7.7 0 1 1 0-1.4h3.39c.386 0 .703.313.703.7s-.317.7-.703.7M31.422 17.7h-3.39a.7.7 0 0 1-.704-.7c0-.387.317-.7.703-.7h3.39a.7.7 0 1 1 0 1.4" style="stroke:none;fill-rule:nonzero;fill:#2c404b;fill-opacity:1"/></svg>