<svg xmlns="http://www.w3.org/2000/svg" width="34pt" height="34pt" viewBox="0 0 34 34"><path d="M17 11.773c-3.742 0-6.79 3.047-6.79 6.79s3.048 6.785 6.79 6.785 6.79-3.043 6.79-6.785-3.048-6.79-6.79-6.79" style="stroke:none;fill-rule:nonzero;fill:#ffea00;fill-opacity:1"/><path d="M17 25.348c-3.742 0-6.79-3.043-6.79-6.785s3.048-6.79 6.79-6.79 6.79 3.047 6.79 6.79-3.048 6.785-6.79 6.785m0-14.973c-4.516 0-8.187 3.672-8.187 8.188 0 4.515 3.671 8.187 8.187 8.187s8.188-3.672 8.188-8.187c0-4.516-3.672-8.188-8.188-8.188M17 8.23a.7.7 0 0 1-.7-.699V4.137a.699.699 0 1 1 1.4 0V7.53c0 .387-.313.7-.7.7M24.8 11.465a.701.701 0 0 1-.495-1.195l2.398-2.403a.703.703 0 0 1 .992.992l-2.402 2.399a.7.7 0 0 1-.492.207M6.8 29.46a.7.7 0 0 1-.495-.202.703.703 0 0 1 0-.992l2.402-2.399a.698.698 0 1 1 .988.988l-2.398 2.403a.7.7 0 0 1-.496.203M9.2 11.465a.7.7 0 0 1-.493-.207L6.305 8.859a.703.703 0 0 1 .992-.992l2.398 2.403a.701.701 0 0 1-.496 1.195M5.969 19.262h-3.39a.7.7 0 1 1 0-1.399h3.39c.386 0 .703.313.703.7s-.317.699-.703.699M31.422 19.262h-3.39a.7.7 0 0 1-.704-.7c0-.386.317-.699.703-.699h3.39a.7.7 0 1 1 0 1.399" style="stroke:none;fill-rule:nonzero;fill:#2c404b;fill-opacity:1"/><path d="M23.277 21.5a3.89 3.89 0 0 0-3.84 3.273 2.454 2.454 0 0 0-3.734 2.098c0 1.055.656 1.945 1.59 2.29h6.898a3.876 3.876 0 0 0 2.973-3.77 3.893 3.893 0 0 0-3.887-3.891" style="stroke:none;fill-rule:nonzero;fill:#f5f6f7;fill-opacity:1"/><path d="M17.293 29.16a2.43 2.43 0 0 1-1.59-2.289 2.454 2.454 0 0 1 3.735-2.098 3.89 3.89 0 0 1 3.84-3.273 3.893 3.893 0 0 1 3.886 3.89 3.876 3.876 0 0 1-2.973 3.77Zm5.984-9.058a5.27 5.27 0 0 0-4.742 2.93 3.858 3.858 0 0 0-4.23 3.84 3.85 3.85 0 0 0 2.504 3.605l.234.085h7.316l.16-.039a5.26 5.26 0 0 0 4.044-5.132 5.29 5.29 0 0 0-5.286-5.29" style="stroke:none;fill-rule:nonzero;fill:#2c404b;fill-opacity:1"/></svg>