<svg xmlns="http://www.w3.org/2000/svg" width="34pt" height="34pt" viewBox="0 0 34 34"><path d="M16.863 12.418a6.08 6.08 0 0 0-6.074 6.074 6.077 6.077 0 0 0 6.074 6.07 6.077 6.077 0 0 0 6.07-6.07 6.077 6.077 0 0 0-6.07-6.074" style="stroke:none;fill-rule:nonzero;fill:#ffea00;fill-opacity:1"/><path d="M10.79 18.492a6.08 6.08 0 0 1 6.073-6.074 6.077 6.077 0 0 1 6.07 6.074 6.077 6.077 0 0 1-6.07 6.07 6.077 6.077 0 0 1-6.074-6.07m6.074-7.472c-4.12 0-7.472 3.351-7.472 7.472s3.351 7.473 7.472 7.473 7.473-3.352 7.473-7.473c0-4.12-3.352-7.472-7.473-7.472M16.863 9.324a.705.705 0 0 1-.703-.703V5.586a.702.702 0 0 1 1.402 0V8.62a.7.7 0 0 1-.699.703M23.84 12.215a.701.701 0 0 1-.496-1.195l2.148-2.149a.703.703 0 0 1 .992 0c.27.274.27.719 0 .988l-2.148 2.149a.7.7 0 0 1-.496.207M9.883 12.215a.7.7 0 0 1-.496-.207L7.242 9.859a.698.698 0 1 1 .988-.988l2.149 2.149a.701.701 0 0 1-.496 1.195M6.992 19.191H3.957a.699.699 0 1 1 0-1.398h3.035a.699.699 0 1 1 0 1.398" style="stroke:none;fill-rule:nonzero;fill:#2c404b;fill-opacity:1"/><path d="M23.027 15.266a6.32 6.32 0 0 0-6.238 5.32A3.9 3.9 0 0 0 14.715 20a3.984 3.984 0 0 0-3.992 3.988 3.95 3.95 0 0 0 2.582 3.727h11.21a6.31 6.31 0 0 0 4.829-6.133 6.32 6.32 0 0 0-6.317-6.316" style="stroke:none;fill-rule:nonzero;fill:#f5f6f7;fill-opacity:1"/><path d="M13.305 27.715a3.95 3.95 0 0 1-2.582-3.727A3.986 3.986 0 0 1 14.715 20c.758 0 1.476.21 2.074.586a6.32 6.32 0 0 1 6.238-5.32 6.32 6.32 0 0 1 6.317 6.316 6.31 6.31 0 0 1-4.828 6.133Zm9.722-13.852a7.675 7.675 0 0 0-7.172 4.86 5.396 5.396 0 0 0-6.531 5.266c0 2.241 1.406 4.269 3.496 5.038l.235.086h11.629l.16-.039a7.68 7.68 0 0 0 5.898-7.492c0-4.254-3.46-7.719-7.715-7.719" style="stroke:none;fill-rule:nonzero;fill:#2c404b;fill-opacity:1"/></svg>