<svg xmlns="http://www.w3.org/2000/svg" width="34pt" height="34pt" viewBox="0 0 34 34"><path d="M15.89 10.969a6.083 6.083 0 0 0-6.074 6.074 6.083 6.083 0 0 0 6.075 6.074 6.083 6.083 0 0 0 6.074-6.074 6.083 6.083 0 0 0-6.074-6.074" style="stroke:none;fill-rule:nonzero;fill:#ffea00;fill-opacity:1"/><path d="M9.816 17.043a6.083 6.083 0 0 1 6.075-6.074 6.083 6.083 0 0 1 6.074 6.074 6.083 6.083 0 0 1-6.074 6.074 6.083 6.083 0 0 1-6.075-6.074m6.075-7.473c-4.121 0-7.473 3.352-7.473 7.473s3.352 7.473 7.473 7.473c4.12 0 7.472-3.352 7.472-7.473S20.012 9.57 15.891 9.57M15.89 7.875a.7.7 0 0 1-.699-.7V4.138a.699.699 0 1 1 1.399 0v3.039c0 .386-.313.699-.7.699M22.867 10.766a.7.7 0 0 1-.492-.207.7.7 0 0 1 0-.989l2.145-2.148a.703.703 0 0 1 .992.992l-2.149 2.145a.7.7 0 0 1-.496.207M8.914 10.766c-.18 0-.36-.07-.496-.207L6.27 8.414a.703.703 0 0 1 .992-.992L9.406 9.57a.69.69 0 0 1 0 .989.7.7 0 0 1-.492.207M6.023 17.742H2.984a.699.699 0 1 1 0-1.398h3.04a.699.699 0 1 1 0 1.398" style="stroke:none;fill-rule:nonzero;fill:#2c404b;fill-opacity:1"/><path d="M21.352 13.816c-3.149 0-5.758 2.313-6.239 5.32a3.984 3.984 0 0 0-6.062 3.406 3.94 3.94 0 0 0 2.582 3.724h11.21a6.31 6.31 0 0 0 4.829-6.133 6.32 6.32 0 0 0-6.32-6.317" style="stroke:none;fill-rule:nonzero;fill:#f5f6f7;fill-opacity:1"/><path d="M11.629 26.266a3.95 3.95 0 0 1-2.578-3.723 3.984 3.984 0 0 1 6.066-3.406 6.32 6.32 0 0 1 6.235-5.32c3.484 0 6.32 2.831 6.32 6.316a6.31 6.31 0 0 1-4.828 6.133Zm9.723-13.848a7.67 7.67 0 0 0-7.168 4.855 5.396 5.396 0 0 0-6.531 5.27c0 2.242 1.402 4.266 3.495 5.035l.23.086h11.63l.16-.039a7.675 7.675 0 0 0 5.902-7.492c0-4.254-3.46-7.715-7.718-7.715" style="stroke:none;fill-rule:nonzero;fill:#2c404b;fill-opacity:1"/><path d="M26.426 21.5a3.89 3.89 0 0 0-3.836 3.273 2.456 2.456 0 0 0-3.735 2.098c0 1.055.657 1.945 1.59 2.29h6.899a3.876 3.876 0 0 0 2.972-3.77 3.894 3.894 0 0 0-3.89-3.891" style="stroke:none;fill-rule:nonzero;fill:#f5f6f7;fill-opacity:1"/><path d="M20.445 29.16a2.43 2.43 0 0 1-1.59-2.289 2.454 2.454 0 0 1 3.73-2.098 3.9 3.9 0 0 1 3.84-3.273 3.894 3.894 0 0 1 3.891 3.89 3.876 3.876 0 0 1-2.972 3.77Zm5.98-9.058a5.27 5.27 0 0 0-4.738 2.93 3.858 3.858 0 0 0-4.23 3.84 3.85 3.85 0 0 0 2.504 3.605l.234.085h7.317l.16-.039a5.266 5.266 0 0 0 4.043-5.132 5.293 5.293 0 0 0-5.29-5.29" style="stroke:none;fill-rule:nonzero;fill:#2c404b;fill-opacity:1"/></svg>