<svg xmlns="http://www.w3.org/2000/svg" width="34pt" height="34pt" viewBox="0 0 34 34"><path d="M20.684 9.34c-3.88 0-7.09 2.848-7.676 6.547a4.85 4.85 0 0 0-2.555-.719 4.9 4.9 0 0 0-4.91 4.91 4.86 4.86 0 0 0 3.176 4.582h13.797a7.76 7.76 0 0 0 5.945-7.547c0-4.289-3.488-7.773-7.777-7.773" style="stroke:none;fill-rule:nonzero;fill:#f5f6f7;fill-opacity:1"/><path d="M8.719 24.66a4.86 4.86 0 0 1-3.18-4.582 4.905 4.905 0 0 1 4.914-4.91c.934 0 1.817.262 2.555.719.586-3.7 3.797-6.547 7.676-6.547 4.289 0 7.777 3.484 7.777 7.773 0 3.668-2.54 6.73-5.945 7.547ZM20.684 7.938a9.125 9.125 0 0 0-8.625 6.035 6.32 6.32 0 0 0-7.918 6.105c0 2.625 1.644 4.996 4.093 5.899l.235.085h14.215l.16-.039a9.14 9.14 0 0 0 7.015-8.91c0-5.058-4.117-9.175-9.175-9.175" style="stroke:none;fill-rule:nonzero;fill:#2c404b;fill-opacity:1"/></svg>