<svg xmlns="http://www.w3.org/2000/svg" width="34pt" height="34pt" viewBox="0 0 34 34"><path d="M16.863 8.02a6.08 6.08 0 0 0-6.074 6.074 6.08 6.08 0 0 0 6.074 6.074c3.348 0 6.07-2.727 6.07-6.074s-2.722-6.074-6.07-6.074" style="stroke:none;fill-rule:nonzero;fill:#ffea00;fill-opacity:1"/><path d="M10.79 14.094a6.08 6.08 0 0 1 6.073-6.074c3.348 0 6.07 2.726 6.07 6.074s-2.722 6.074-6.07 6.074a6.08 6.08 0 0 1-6.074-6.074m6.074-7.473c-4.12 0-7.472 3.352-7.472 7.473 0 4.12 3.351 7.472 7.472 7.472s7.473-3.351 7.473-7.472-3.352-7.473-7.473-7.473M16.863 4.926a.7.7 0 0 1-.703-.7V1.189a.702.702 0 0 1 1.402 0v3.039c0 .386-.312.699-.699.699M23.84 7.816a.701.701 0 0 1-.496-1.195l2.148-2.148a.703.703 0 0 1 .992 0 .71.71 0 0 1 0 .992l-2.148 2.144a.7.7 0 0 1-.496.207M9.883 7.816a.7.7 0 0 1-.496-.207L7.242 5.465a.703.703 0 0 1 0-.992.7.7 0 0 1 .988 0L10.38 6.62a.701.701 0 0 1-.496 1.195M6.992 14.793H3.957a.699.699 0 1 1 0-1.398h3.035a.699.699 0 1 1 0 1.398" style="stroke:none;fill-rule:nonzero;fill:#2c404b;fill-opacity:1"/><path d="M23.027 10.863a6.32 6.32 0 0 0-6.238 5.32 3.9 3.9 0 0 0-2.074-.585 3.984 3.984 0 0 0-3.992 3.988 3.95 3.95 0 0 0 2.582 3.727h11.21a6.31 6.31 0 0 0 4.829-6.133 6.32 6.32 0 0 0-6.317-6.317" style="stroke:none;fill-rule:nonzero;fill:#cfd6dc;fill-opacity:1"/><path d="M13.305 23.313a3.95 3.95 0 0 1-2.582-3.727 3.986 3.986 0 0 1 6.066-3.402 6.32 6.32 0 0 1 6.238-5.32 6.32 6.32 0 0 1 6.317 6.316 6.31 6.31 0 0 1-4.828 6.133ZM23.027 9.46a7.675 7.675 0 0 0-7.172 4.86 5.396 5.396 0 0 0-6.531 5.266c0 2.241 1.406 4.268 3.496 5.038l.235.086h11.629l.16-.04a7.68 7.68 0 0 0 5.898-7.491c0-4.254-3.46-7.72-7.715-7.72M15.7 33.512a.7.7 0 0 1-.352-.098.697.697 0 0 1-.254-.957l3.5-6a.7.7 0 1 1 1.21.707l-3.5 6a.7.7 0 0 1-.605.348M20.598 33.512a.699.699 0 0 1-.602-1.055l3.5-6a.7.7 0 0 1 .957-.25c.332.195.45.621.25.957l-3.5 6a.7.7 0 0 1-.605.348" style="stroke:none;fill-rule:nonzero;fill:#2c404b;fill-opacity:1"/></svg>