<svg xmlns="http://www.w3.org/2000/svg" width="34pt" height="34pt" viewBox="0 0 34 34"><path d="m21.953 30.805-1.71-.992 1.71-.997a.7.7 0 0 0 .254-.953.69.69 0 0 0-.95-.258l-1.71.993v-1.985a.7.7 0 0 0-.695-.703c-.387 0-.7.317-.7.703v1.985l-1.71-.993a.698.698 0 0 0-.691 1.21l1.706.998-1.707.992a.702.702 0 0 0 .348 1.308.7.7 0 0 0 .343-.093l1.711-.997v1.989a.699.699 0 1 0 1.395 0v-1.989l1.71.997q.166.093.348.093a.7.7 0 0 0 .602-.351.705.705 0 0 0-.254-.957M30.254 30.805l-1.711-.992 1.71-.997a.7.7 0 0 0-.698-1.21l-1.707.992v-1.985a.7.7 0 0 0-.7-.703.7.7 0 0 0-.695.703v1.985l-1.71-.993a.69.69 0 0 0-.95.258.7.7 0 0 0 .254.953l1.71.997-1.71.992a.705.705 0 0 0-.254.957.7.7 0 0 0 .602.351.7.7 0 0 0 .347-.093l1.711-.997v1.989a.698.698 0 1 0 1.395 0v-1.989l1.707.997q.17.093.347.093a.702.702 0 0 0 .352-1.308M13.652 30.805l-1.71-.992 1.71-.997a.7.7 0 0 0 .254-.953.69.69 0 0 0-.949-.258l-1.71.993v-1.985a.7.7 0 0 0-.696-.703.7.7 0 0 0-.696.703v1.985l-1.71-.993a.695.695 0 0 0-.954.258.7.7 0 0 0 .258.953l1.707.997-1.707.992a.702.702 0 0 0 .348 1.308.7.7 0 0 0 .348-.093l1.71-.997v1.989a.695.695 0 1 0 1.391 0v-1.989l1.711.997q.166.093.348.093a.7.7 0 0 0 .601-.351.705.705 0 0 0-.254-.957" style="stroke:none;fill-rule:nonzero;fill:#2c404b;fill-opacity:1"/><path d="M16.863 7.82a6.08 6.08 0 0 0-6.074 6.075 6.08 6.08 0 0 0 6.074 6.074c3.348 0 6.07-2.727 6.07-6.074a6.077 6.077 0 0 0-6.07-6.075" style="stroke:none;fill-rule:nonzero;fill:#ffea00;fill-opacity:1"/><path d="M10.79 13.895a6.08 6.08 0 0 1 6.073-6.075 6.077 6.077 0 0 1 6.07 6.075c0 3.347-2.722 6.074-6.07 6.074a6.08 6.08 0 0 1-6.074-6.074m6.074-7.473c-4.12 0-7.472 3.351-7.472 7.473 0 4.12 3.351 7.472 7.472 7.472s7.473-3.351 7.473-7.472-3.352-7.473-7.473-7.473M16.863 4.727a.705.705 0 0 1-.703-.704V.988a.702.702 0 0 1 1.402 0v3.035a.7.7 0 0 1-.699.704M23.84 7.617a.701.701 0 0 1-.496-1.195l2.148-2.149a.703.703 0 0 1 .992 0 .71.71 0 0 1 0 .993L24.336 7.41a.7.7 0 0 1-.496.207M9.883 7.617a.7.7 0 0 1-.496-.207L7.242 5.266a.703.703 0 0 1 0-.993.7.7 0 0 1 .988 0l2.149 2.149a.701.701 0 0 1-.496 1.195M6.992 14.594H3.957a.699.699 0 1 1 0-1.399h3.035a.699.699 0 1 1 0 1.399" style="stroke:none;fill-rule:nonzero;fill:#2c404b;fill-opacity:1"/><path d="M23.027 10.664a6.32 6.32 0 0 0-6.238 5.316 3.94 3.94 0 0 0-2.074-.582 3.984 3.984 0 0 0-3.992 3.989 3.95 3.95 0 0 0 2.582 3.722h11.21a6.3 6.3 0 0 0 4.829-6.129 6.32 6.32 0 0 0-6.317-6.316" style="stroke:none;fill-rule:nonzero;fill:#cfd6dc;fill-opacity:1"/><path d="M13.305 23.113a3.96 3.96 0 0 1-2.582-3.726 3.986 3.986 0 0 1 3.992-3.989c.758 0 1.476.211 2.074.582a6.32 6.32 0 0 1 6.238-5.316 6.32 6.32 0 0 1 6.317 6.316 6.31 6.31 0 0 1-4.828 6.133Zm9.722-13.851a7.68 7.68 0 0 0-7.172 4.855 5.396 5.396 0 0 0-6.531 5.27c0 2.242 1.406 4.27 3.496 5.039l.235.086h11.629l.16-.04a7.68 7.68 0 0 0 5.898-7.492c0-4.257-3.46-7.718-7.715-7.718" style="stroke:none;fill-rule:nonzero;fill:#2c404b;fill-opacity:1"/></svg>