<svg xmlns="http://www.w3.org/2000/svg" width="34pt" height="34pt" viewBox="0 0 34 34"><path d="m20.031 26.316-1.71-.992 1.71-.992a.705.705 0 0 0 .254-.957.693.693 0 0 0-.95-.258l-1.71.992v-1.984a.698.698 0 1 0-1.395 0v1.984l-1.71-.992a.694.694 0 0 0-.95.258.7.7 0 0 0 .258.957l1.707.992-1.707.992a.703.703 0 0 0-.258.957.694.694 0 0 0 .95.258l1.71-.992v1.984a.699.699 0 1 0 1.395 0V26.54l1.71.992a.694.694 0 0 0 .95-.258.705.705 0 0 0-.254-.957M28.332 26.316l-1.71-.992 1.71-.992a.705.705 0 0 0 .254-.957.7.7 0 0 0-.953-.258l-1.707.992v-1.984a.699.699 0 1 0-1.395 0v1.984l-1.71-.992a.694.694 0 0 0-.95.258.705.705 0 0 0 .254.957l1.71.992-1.71.992a.705.705 0 0 0-.254.957.69.69 0 0 0 .95.258l1.71-.992v1.984a.698.698 0 1 0 1.395 0V26.54l1.707.992q.17.094.347.094a.7.7 0 0 0 .606-.352.705.705 0 0 0-.254-.957M11.73 26.316l-1.71-.992 1.71-.992a.705.705 0 0 0 .254-.957.693.693 0 0 0-.949-.258l-1.71.992v-1.984a.695.695 0 1 0-1.39 0l-.001 1.984-1.711-.992a.699.699 0 1 0-.696 1.215l1.707.992-1.707.992a.703.703 0 0 0-.257.957.694.694 0 0 0 .953.258l1.71-.992v1.984a.695.695 0 1 0 1.391 0V26.54l1.711.992a.694.694 0 0 0 .95-.258.705.705 0 0 0-.255-.957" style="stroke:none;fill-rule:nonzero;fill:#2c404b;fill-opacity:1"/><path d="M21.105 6.176a6.32 6.32 0 0 0-6.238 5.32 3.94 3.94 0 0 0-2.074-.586 3.984 3.984 0 0 0-3.992 3.992 3.95 3.95 0 0 0 2.582 3.723h11.21a6.31 6.31 0 0 0 4.829-6.133 6.32 6.32 0 0 0-6.317-6.316" style="stroke:none;fill-rule:nonzero;fill:#cfd6dc;fill-opacity:1"/><path d="M11.383 18.625A3.95 3.95 0 0 1 8.8 14.902a3.987 3.987 0 0 1 6.066-3.406 6.32 6.32 0 0 1 6.238-5.32 6.32 6.32 0 0 1 6.317 6.316 6.31 6.31 0 0 1-4.828 6.133Zm9.722-13.848a7.67 7.67 0 0 0-7.171 4.856 5.396 5.396 0 0 0-6.531 5.27 5.38 5.38 0 0 0 3.495 5.034l.235.086h11.629l.16-.039a7.676 7.676 0 0 0 5.898-7.492c0-4.254-3.46-7.715-7.715-7.715" style="stroke:none;fill-rule:nonzero;fill:#2c404b;fill-opacity:1"/></svg>