<svg xmlns="http://www.w3.org/2000/svg" width="34pt" height="34pt" viewBox="0 0 34 34"><path d="M14.02 9.059c.082-.961.27-1.895.539-2.801a11.05 11.05 0 0 0-7.485 9.523C6.547 21.836 11.04 27.168 17.117 27.7q.493.042.98.043c3.544 0 6.805-1.687 8.872-4.523-.36-.008-.719-.02-1.051-.047-7.188-.629-12.527-6.945-11.898-14.113" style="stroke:none;fill-rule:nonzero;fill:#ffea00;fill-opacity:1"/><path d="M17.117 27.7c-6.078-.532-10.57-5.864-10.043-11.919a11.05 11.05 0 0 1 7.485-9.523 14 14 0 0 0-.54 2.8c-.628 7.169 4.711 13.485 11.895 14.114.336.027.695.039 1.055.047a10.93 10.93 0 0 1-9.852 4.48m11.106-5.097a1.4 1.4 0 0 0-1.215-.782c-.332-.008-.66-.02-.969-.043-6.418-.562-11.184-6.21-10.625-12.593.07-.832.234-1.684.488-2.528.149-.5.004-1.043-.37-1.406a1.41 1.41 0 0 0-1.419-.32A12.45 12.45 0 0 0 5.68 15.656c-.29 3.301.73 6.52 2.867 9.055a12.37 12.37 0 0 0 8.45 4.383c.366.031.737.047 1.1.047 3.997 0 7.641-1.856 10-5.098a1.39 1.39 0 0 0 .126-1.441" style="stroke:none;fill-rule:nonzero;fill:#2c404b;fill-opacity:1"/></svg>