<svg xmlns="http://www.w3.org/2000/svg" width="34pt" height="34pt" viewBox="0 0 34 34"><path d="M15.36 7.203a14.3 14.3 0 0 1 .542-2.805 11.05 11.05 0 0 0-7.484 9.524c-.531 6.055 3.965 11.39 10.043 11.922q.493.042.98.043c3.543 0 6.805-1.688 8.868-4.524-.356-.011-.715-.02-1.051-.05-7.184-.63-12.524-6.946-11.899-14.11" style="stroke:none;fill-rule:nonzero;fill:#ffea00;fill-opacity:1"/><path d="M18.46 25.844c-6.077-.535-10.57-5.867-10.042-11.922a11.06 11.06 0 0 1 7.484-9.524 14.3 14.3 0 0 0-.543 2.805c-.625 7.164 4.711 13.48 11.899 14.11.336.03.695.039 1.05.05a10.93 10.93 0 0 1-9.847 4.48m11.105-5.097a1.39 1.39 0 0 0-1.214-.781c-.332-.012-.66-.02-.973-.047-6.414-.563-11.18-6.211-10.625-12.594.074-.832.238-1.68.488-2.523a1.398 1.398 0 0 0-1.785-1.727 12.45 12.45 0 0 0-8.434 10.727c-.289 3.3.73 6.515 2.868 9.054a12.4 12.4 0 0 0 9.55 4.43c3.997 0 7.641-1.86 10-5.097a1.4 1.4 0 0 0 .125-1.442" style="stroke:none;fill-rule:nonzero;fill:#2c404b;fill-opacity:1"/><path d="M13.262 18.082a3.89 3.89 0 0 0-3.84 3.273 2.4 2.4 0 0 0-1.277-.359A2.45 2.45 0 0 0 5.69 23.45c0 1.059.653 1.95 1.586 2.293h6.899a3.884 3.884 0 0 0-.914-7.66" style="stroke:none;fill-rule:nonzero;fill:#f5f6f7;fill-opacity:1"/><path d="M7.277 25.742a2.43 2.43 0 0 1-1.586-2.293 2.45 2.45 0 0 1 2.454-2.453 2.4 2.4 0 0 1 1.277.36 3.889 3.889 0 0 1 7.726.613 3.884 3.884 0 0 1-2.972 3.773Zm5.985-9.062a5.26 5.26 0 0 0-4.739 2.933A3.861 3.861 0 0 0 4.29 23.45a3.85 3.85 0 0 0 2.504 3.606l.234.086h7.317l.16-.04a5.255 5.255 0 0 0 4.043-5.132 5.295 5.295 0 0 0-5.285-5.29" style="stroke:none;fill-rule:nonzero;fill:#2c404b;fill-opacity:1"/></svg>