<svg xmlns="http://www.w3.org/2000/svg" width="34pt" height="34pt" viewBox="0 0 34 34"><path d="M14.414 9.52c.066-.77.219-1.516.434-2.243a8.84 8.84 0 0 0-5.989 7.618c-.421 4.843 3.172 9.113 8.036 9.535q.392.035.785.035a8.74 8.74 0 0 0 7.093-3.617c-.285-.008-.574-.016-.84-.04-5.75-.503-10.019-5.554-9.519-11.288" style="stroke:none;fill-rule:nonzero;fill:#ffea00;fill-opacity:1"/><path d="M16.895 24.43c-4.864-.422-8.457-4.692-8.036-9.535a8.84 8.84 0 0 1 5.989-7.618 11.3 11.3 0 0 0-.434 2.243c-.5 5.734 3.77 10.785 9.52 11.289.265.023.554.03.84.039a8.74 8.74 0 0 1-7.88 3.582m9.137-4.2c-.23-.464-.699-.765-1.218-.78-.258-.009-.516-.016-.758-.036a9.03 9.03 0 0 1-6.157-3.191 8.93 8.93 0 0 1-2.09-6.582c.06-.645.184-1.305.38-1.965a1.395 1.395 0 0 0-1.34-1.797c-.149 0-.301.023-.446.07a10.25 10.25 0 0 0-6.937 8.824 10.12 10.12 0 0 0 2.36 7.45 10.2 10.2 0 0 0 7.855 3.644c3.285 0 6.285-1.531 8.226-4.195.305-.418.352-.973.125-1.442" style="stroke:none;fill-rule:nonzero;fill:#2c404b;fill-opacity:1"/><path d="M19.992 13.273c-3.152 0-5.758 2.317-6.238 5.32a3.94 3.94 0 0 0-2.074-.581A3.983 3.983 0 0 0 7.69 22a3.95 3.95 0 0 0 2.579 3.723h11.214a6.306 6.306 0 0 0 4.828-6.13 6.33 6.33 0 0 0-6.32-6.32" style="stroke:none;fill-rule:nonzero;fill:#f5f6f7;fill-opacity:1"/><path d="M10.27 25.723A3.95 3.95 0 0 1 7.69 22a3.983 3.983 0 0 1 3.989-3.988c.758 0 1.476.21 2.074.582.48-3.004 3.086-5.32 6.238-5.32 3.485 0 6.317 2.835 6.317 6.32a6.3 6.3 0 0 1-4.829 6.129Zm9.722-13.848a7.68 7.68 0 0 0-7.172 4.855A5.396 5.396 0 0 0 6.29 22a5.39 5.39 0 0 0 3.496 5.04l.235.085h11.628l.16-.04a7.68 7.68 0 0 0 5.903-7.491c0-4.258-3.461-7.719-7.719-7.719" style="stroke:none;fill-rule:nonzero;fill:#2c404b;fill-opacity:1"/></svg>