<svg xmlns="http://www.w3.org/2000/svg" width="34pt" height="34pt" viewBox="0 0 34 34"><path d="M20.684 10.402c-3.88 0-7.09 2.848-7.676 6.547a4.85 4.85 0 0 0-2.555-.719 4.9 4.9 0 0 0-4.91 4.91 4.85 4.85 0 0 0 3.176 4.583h13.797a7.76 7.76 0 0 0 5.945-7.543c0-4.29-3.488-7.778-7.777-7.778" style="stroke:none;fill-rule:nonzero;fill:#f5f6f7;fill-opacity:1"/><path d="M8.719 25.723a4.86 4.86 0 0 1-3.18-4.582 4.905 4.905 0 0 1 4.914-4.91c.934 0 1.817.261 2.555.718.586-3.699 3.797-6.547 7.676-6.547 4.289 0 7.777 3.489 7.777 7.778a7.76 7.76 0 0 1-5.945 7.543Zm11.965-16.72c-3.942 0-7.336 2.45-8.625 6.032A6.32 6.32 0 0 0 4.14 21.14c0 2.626 1.644 4.997 4.093 5.9l.235.085h14.215l.16-.04a9.13 9.13 0 0 0 7.015-8.905c0-5.063-4.117-9.176-9.175-9.176" style="stroke:none;fill-rule:nonzero;fill:#2c404b;fill-opacity:1"/></svg>