<svg xmlns="http://www.w3.org/2000/svg" width="34pt" height="34pt" viewBox="0 0 34 34"><path d="M18.672 10.328a6.32 6.32 0 0 0-6.238 5.32 3.9 3.9 0 0 0-2.075-.585 3.984 3.984 0 0 0-3.992 3.988 3.95 3.95 0 0 0 2.582 3.726H20.16a6.31 6.31 0 0 0 4.828-6.132 6.32 6.32 0 0 0-6.316-6.317" style="stroke:none;fill-rule:nonzero;fill:#f5f6f7;fill-opacity:1"/><path d="M8.95 22.777a3.95 3.95 0 0 1-2.583-3.726 3.984 3.984 0 0 1 3.992-3.988c.758 0 1.477.214 2.075.585a6.32 6.32 0 0 1 6.238-5.32 6.32 6.32 0 0 1 6.316 6.317 6.31 6.31 0 0 1-4.828 6.132Zm9.722-13.851a7.675 7.675 0 0 0-7.172 4.86 5.396 5.396 0 0 0-6.531 5.266c0 2.245 1.406 4.268 3.496 5.038l.234.086h11.63l.16-.04a7.68 7.68 0 0 0 5.898-7.491c0-4.254-3.461-7.72-7.715-7.72" style="stroke:none;fill-rule:nonzero;fill:#2c404b;fill-opacity:1"/><path d="M23.746 18.012a3.89 3.89 0 0 0-3.84 3.273 2.453 2.453 0 0 0-3.734 2.094 2.43 2.43 0 0 0 1.59 2.293h6.898a3.88 3.88 0 0 0 2.973-3.774 3.89 3.89 0 0 0-3.887-3.886" style="stroke:none;fill-rule:nonzero;fill:#f5f6f7;fill-opacity:1"/><path d="M17.762 25.672a2.43 2.43 0 0 1-1.59-2.293 2.453 2.453 0 0 1 3.734-2.094 3.89 3.89 0 0 1 3.84-3.273 3.89 3.89 0 0 1 3.887 3.886 3.88 3.88 0 0 1-2.973 3.774Zm5.984-9.059a5.27 5.27 0 0 0-4.742 2.93 3.858 3.858 0 0 0-4.23 3.836 3.86 3.86 0 0 0 2.503 3.61l.235.085h7.316l.16-.039a5.26 5.26 0 0 0 4.043-5.137 5.29 5.29 0 0 0-5.285-5.285" style="stroke:none;fill-rule:nonzero;fill:#2c404b;fill-opacity:1"/></svg>