<svg xmlns="http://www.w3.org/2000/svg" width="34pt" height="34pt" viewBox="0 0 34 34"><path d="M5.902 25.605H26.2c-.926.684-2.031 1.2-3.34 1.489l-.164.031H8.832l-.184-.047c-1.093-.273-2.02-.773-2.746-1.473M4.156 22.266h24.809a8.7 8.7 0 0 1-.91 1.52H4.594c-.18-.395-.301-.806-.39-1.247ZM25.914 10.422h-10.25a9.08 9.08 0 0 1 5.055-1.516h.031c.105 0 .2 0 .29.016.651.027 1.304.117 2.019.27a8.6 8.6 0 0 1 2.855 1.23M28.86 13.762H12.565a8.6 8.6 0 0 1 1.032-1.516h14.304c.38.469.7.984.957 1.516M29.828 17.102H5.508a5.9 5.9 0 0 1 1.258-1.274q.18-.133.367-.242h22.422c.136.5.23 1.016.273 1.516M29.86 18.926c-.047.5-.122 1.015-.243 1.515H4.141a6.3 6.3 0 0 1 .379-1.515Zm0 0" style="stroke:none;fill-rule:nonzero;fill:#2c404b;fill-opacity:1"/><path d="M25.914 10.422h-10.25a9.08 9.08 0 0 1 5.055-1.516h.031c.105 0 .2 0 .29.016.651.027 1.304.117 2.019.27a8.6 8.6 0 0 1 2.855 1.23M28.86 13.762H12.565a8.6 8.6 0 0 1 1.032-1.516h14.304c.38.469.7.984.957 1.516M29.828 17.102H5.508a5.9 5.9 0 0 1 1.258-1.274q.18-.133.367-.242h22.422c.136.5.23 1.016.273 1.516M29.86 18.926c-.047.5-.122 1.015-.243 1.515H4.141a6.3 6.3 0 0 1 .379-1.515ZM28.965 22.266a8.7 8.7 0 0 1-.91 1.52H4.598a5.7 5.7 0 0 1-.399-1.247l-.043-.273ZM26.2 25.605c-.927.684-2.036 1.2-3.34 1.489l-.165.031H8.832l-.184-.047c-1.09-.273-2.02-.773-2.746-1.473Zm0 0" style="stroke:none;fill-rule:nonzero;fill:#2c404b;fill-opacity:1"/></svg>