<svg xmlns="http://www.w3.org/2000/svg" width="34pt" height="34pt" viewBox="0 0 34 34"><path d="M14.414 6.598c.066-.774.219-1.52.434-2.243a8.84 8.84 0 0 0-5.989 7.618c-.421 4.843 3.172 9.109 8.036 9.535q.392.035.785.035a8.75 8.75 0 0 0 7.093-3.617c-.285-.012-.574-.02-.84-.043-5.75-.5-10.019-5.555-9.519-11.285" style="stroke:none;fill-rule:nonzero;fill:#ffea00;fill-opacity:1"/><path d="M16.895 21.508c-4.864-.426-8.457-4.692-8.036-9.535a8.84 8.84 0 0 1 5.989-7.618 11.2 11.2 0 0 0-.434 2.243c-.5 5.73 3.77 10.785 9.52 11.285.265.023.554.031.84.043a8.75 8.75 0 0 1-7.88 3.582m9.137-4.2c-.23-.468-.699-.769-1.218-.785a10 10 0 0 1-.758-.035 9.05 9.05 0 0 1-6.157-3.187 8.93 8.93 0 0 1-2.09-6.582c.06-.649.184-1.309.38-1.965.152-.5.007-1.043-.368-1.406a1.4 1.4 0 0 0-1.418-.32 10.24 10.24 0 0 0-6.937 8.824 10.12 10.12 0 0 0 2.36 7.449 10.18 10.18 0 0 0 6.945 3.601q.457.041.91.04c3.285 0 6.285-1.528 8.226-4.192a1.41 1.41 0 0 0 .125-1.441" style="stroke:none;fill-rule:nonzero;fill:#2c404b;fill-opacity:1"/><path d="M19.992 10.352c-3.152 0-5.758 2.312-6.238 5.32a3.984 3.984 0 0 0-6.063 3.406 3.95 3.95 0 0 0 2.579 3.723h11.214a6.31 6.31 0 0 0 4.828-6.133c0-3.484-2.835-6.316-6.32-6.316" style="stroke:none;fill-rule:nonzero;fill:#cfd6dc;fill-opacity:1"/><path d="M10.27 22.8a3.95 3.95 0 0 1-2.579-3.722 3.984 3.984 0 0 1 6.063-3.406c.48-3.008 3.086-5.32 6.238-5.32a6.32 6.32 0 0 1 6.317 6.316 6.3 6.3 0 0 1-4.829 6.133Zm9.722-13.847a7.675 7.675 0 0 0-7.172 4.856 5.396 5.396 0 0 0-6.531 5.27 5.38 5.38 0 0 0 3.496 5.034l.235.086h11.628l.16-.039a7.675 7.675 0 0 0 5.903-7.492c0-4.254-3.461-7.715-7.719-7.715M12.664 33a.699.699 0 0 1-.602-1.055l3.5-6a.7.7 0 0 1 1.207.707l-3.5 6a.7.7 0 0 1-.605.348M17.566 33a.7.7 0 0 1-.351-.098.697.697 0 0 1-.254-.957l3.5-6a.704.704 0 0 1 .957-.25c.336.196.45.621.254.957l-3.5 6a.7.7 0 0 1-.606.348" style="stroke:none;fill-rule:nonzero;fill:#2c404b;fill-opacity:1"/></svg>