<svg xmlns="http://www.w3.org/2000/svg" width="34pt" height="34pt" viewBox="0 0 34 34"><path d="M14.414 6.617c.066-.77.219-1.515.434-2.242a8.85 8.85 0 0 0-5.989 7.617c-.421 4.848 3.172 9.113 8.036 9.54q.392.034.785.034a8.75 8.75 0 0 0 7.093-3.62c-.285-.009-.574-.016-.84-.04-5.75-.504-10.019-5.554-9.519-11.289" style="stroke:none;fill-rule:nonzero;fill:#ffea00;fill-opacity:1"/><path d="M16.895 21.531c-4.864-.426-8.457-4.691-8.036-9.535a8.84 8.84 0 0 1 5.989-7.621 11.3 11.3 0 0 0-.434 2.246c-.5 5.73 3.77 10.781 9.52 11.285.265.024.554.032.84.04a8.74 8.74 0 0 1-7.094 3.616c-.262 0-.524-.007-.785-.03m9.136-4.204c-.23-.465-.699-.765-1.218-.781-.258-.008-.516-.016-.758-.035a9.03 9.03 0 0 1-6.157-3.192 8.92 8.92 0 0 1-2.09-6.578 10 10 0 0 1 .38-1.969c.152-.5.007-1.043-.368-1.402a1.4 1.4 0 0 0-1.418-.32 10.24 10.24 0 0 0-6.937 8.82 10.11 10.11 0 0 0 2.36 7.45 10.18 10.18 0 0 0 6.945 3.605q.457.04.91.039c3.285 0 6.285-1.527 8.226-4.195.305-.418.352-.973.125-1.442" style="stroke:none;fill-rule:nonzero;fill:#2c404b;fill-opacity:1"/><path d="M19.992 10.375c-3.152 0-5.758 2.313-6.238 5.32a3.9 3.9 0 0 0-2.074-.586 3.983 3.983 0 0 0-3.989 3.989 3.95 3.95 0 0 0 2.579 3.726h11.214a6.31 6.31 0 0 0 4.828-6.133c0-3.484-2.835-6.316-6.32-6.316" style="stroke:none;fill-rule:nonzero;fill:#cfd6dc;fill-opacity:1"/><path d="M10.27 22.824a3.95 3.95 0 0 1-2.579-3.726 3.983 3.983 0 0 1 3.989-3.989c.758 0 1.476.211 2.074.586.48-3.008 3.086-5.32 6.238-5.32a6.32 6.32 0 0 1 6.317 6.316 6.306 6.306 0 0 1-4.829 6.133Zm9.722-13.851a7.68 7.68 0 0 0-7.172 4.855 5.396 5.396 0 0 0-6.531 5.27c0 2.242 1.406 4.27 3.496 5.039l.235.086h11.628l.16-.04a7.68 7.68 0 0 0 5.903-7.492c0-4.253-3.461-7.718-7.719-7.718M13.898 33.023a.7.7 0 0 1-.602-1.055l3.5-6a.7.7 0 0 1 1.207.707l-3.5 6a.7.7 0 0 1-.605.348M18.8 33.023a.7.7 0 0 1-.35-.097.7.7 0 0 1-.255-.957l3.5-6a.7.7 0 0 1 1.211.707l-3.5 6a.7.7 0 0 1-.605.347" style="stroke:none;fill-rule:nonzero;fill:#2c404b;fill-opacity:1"/><path d="M8 34a.704.704 0 0 1-.61-1.047l3.239-5.664-3.492.695a.69.69 0 0 1-.715-.293.68.68 0 0 1-.008-.77l5.5-8.503a.7.7 0 1 1 1.172.762l-4.598 7.11 3.375-.677a.702.702 0 0 1 .746 1.035l-4 7A.71.71 0 0 1 8 34" style="stroke:none;fill-rule:nonzero;fill:#2c404b;fill-opacity:1"/></svg>