<svg xmlns="http://www.w3.org/2000/svg" width="34pt" height="34pt" viewBox="0 0 34 34"><path d="M15.102 6.64c.066-.769.218-1.515.433-2.242a8.85 8.85 0 0 0-5.988 7.618c-.422 4.843 3.172 9.113 8.035 9.539q.393.035.785.035a8.75 8.75 0 0 0 7.094-3.621c-.285-.008-.574-.016-.84-.04-5.75-.503-10.023-5.554-9.52-11.288" style="stroke:none;fill-rule:nonzero;fill:#ffea00;fill-opacity:1"/><path d="M17.582 21.555c-4.863-.426-8.457-4.692-8.035-9.535a8.84 8.84 0 0 1 5.988-7.622 11 11 0 0 0-.433 2.247c-.5 5.73 3.77 10.78 9.52 11.285.265.023.554.03.839.039a8.74 8.74 0 0 1-7.094 3.617q-.393.002-.785-.031m9.137-4.203c-.23-.465-.7-.766-1.219-.782-.258-.008-.516-.015-.758-.035a9.03 9.03 0 0 1-6.156-3.191 8.92 8.92 0 0 1-2.09-6.578 10 10 0 0 1 .379-1.97 1.398 1.398 0 0 0-1.785-1.723 10.24 10.24 0 0 0-6.938 8.822 10.11 10.11 0 0 0 2.36 7.449 10.18 10.18 0 0 0 6.945 3.605c.3.024.61.04.91.04 3.285 0 6.281-1.528 8.227-4.196.304-.418.351-.973.125-1.441" style="stroke:none;fill-rule:nonzero;fill:#2c404b;fill-opacity:1"/><path d="M20.68 10.398c-3.153 0-5.758 2.313-6.239 5.32a3.9 3.9 0 0 0-2.074-.585 3.986 3.986 0 0 0-3.992 3.988 3.95 3.95 0 0 0 2.582 3.727h11.211a6.306 6.306 0 0 0 4.828-6.133 6.32 6.32 0 0 0-6.316-6.317" style="stroke:none;fill-rule:nonzero;fill:#cfd6dc;fill-opacity:1"/><path d="M10.957 22.848a3.95 3.95 0 0 1-2.578-3.727 3.983 3.983 0 0 1 3.988-3.988c.758 0 1.477.21 2.074.586.48-3.008 3.086-5.32 6.239-5.32a6.32 6.32 0 0 1 6.316 6.316 6.306 6.306 0 0 1-4.828 6.133ZM20.68 8.996a7.68 7.68 0 0 0-7.172 4.856 5.396 5.396 0 0 0-6.531 5.27c0 2.241 1.406 4.269 3.496 5.038l.234.086h11.629l.16-.039a7.68 7.68 0 0 0 5.902-7.492c0-4.254-3.464-7.719-7.718-7.719M12.156 30.54l-1.71-.993 1.71-.992a.705.705 0 0 0 .254-.957.693.693 0 0 0-.95-.258l-1.71.992v-1.984a.7.7 0 0 0-.695-.703c-.387 0-.7.316-.7.703v1.984l-1.71-.992a.694.694 0 0 0-.95.258.705.705 0 0 0 .254.957l1.711.992-1.71.992a.705.705 0 0 0-.255.957.694.694 0 0 0 .95.258l1.71-.996v1.988a.699.699 0 1 0 1.395 0v-1.988l1.71.996a.694.694 0 0 0 .95-.258.705.705 0 0 0-.254-.957M14.602 33.445a.7.7 0 0 1-.352-.093.7.7 0 0 1-.25-.957l3.5-6a.7.7 0 0 1 .957-.254.7.7 0 0 1 .25.957l-3.5 6a.7.7 0 0 1-.605.347M19.504 33.445a.699.699 0 0 1-.605-1.05l3.5-6a.7.7 0 0 1 .956-.254c.336.195.45.625.254.957l-3.5 6a.71.71 0 0 1-.605.347" style="stroke:none;fill-rule:nonzero;fill:#2c404b;fill-opacity:1"/></svg>