<svg xmlns="http://www.w3.org/2000/svg" width="34pt" height="34pt" viewBox="0 0 34 34"><path d="M15.453 6.64c.067-.769.215-1.515.43-2.242a8.85 8.85 0 0 0-5.985 7.618c-.425 4.843 3.172 9.113 8.032 9.539a8.741 8.741 0 0 0 7.879-3.586c-.286-.008-.57-.016-.84-.04-5.75-.503-10.02-5.554-9.516-11.288" style="stroke:none;fill-rule:nonzero;fill:#ffea00;fill-opacity:1"/><path d="M17.93 21.555c-4.86-.426-8.457-4.692-8.032-9.535a8.85 8.85 0 0 1 5.985-7.622 11.6 11.6 0 0 0-.434 2.247c-.5 5.73 3.77 10.78 9.52 11.285.27.023.554.03.84.039a8.74 8.74 0 0 1-7.094 3.617c-.258 0-.524-.008-.785-.031m9.136-4.203a1.4 1.4 0 0 0-1.214-.782c-.258-.008-.52-.015-.762-.035a9.02 9.02 0 0 1-6.152-3.191 8.92 8.92 0 0 1-2.09-6.578 10 10 0 0 1 .379-1.97c.148-.5.003-1.042-.372-1.401a1.39 1.39 0 0 0-1.418-.32 10.24 10.24 0 0 0-6.933 8.82 10.1 10.1 0 0 0 2.355 7.449 10.2 10.2 0 0 0 6.95 3.605c.3.024.605.04.906.04 3.289 0 6.285-1.528 8.226-4.196a1.39 1.39 0 0 0 .125-1.441" style="stroke:none;fill-rule:nonzero;fill:#2c404b;fill-opacity:1"/><path d="M21.031 10.398a6.32 6.32 0 0 0-6.238 5.32 3.9 3.9 0 0 0-2.078-.585 3.983 3.983 0 0 0-3.988 3.988 3.95 3.95 0 0 0 2.582 3.727h11.21a6.31 6.31 0 0 0 4.829-6.133 6.32 6.32 0 0 0-6.317-6.317" style="stroke:none;fill-rule:nonzero;fill:#cfd6dc;fill-opacity:1"/><path d="M11.309 22.848a3.95 3.95 0 0 1-2.582-3.727 3.984 3.984 0 0 1 3.992-3.988c.758 0 1.472.21 2.074.586a6.32 6.32 0 0 1 6.234-5.32 6.32 6.32 0 0 1 6.32 6.316 6.31 6.31 0 0 1-4.827 6.133Zm9.718-13.852a7.68 7.68 0 0 0-7.168 4.856 5.396 5.396 0 0 0-6.531 5.27c0 2.241 1.402 4.269 3.496 5.038l.235.086h11.625l.164-.039a7.68 7.68 0 0 0 5.898-7.492c0-4.254-3.46-7.719-7.719-7.719M20.105 30.54l-1.71-.993 1.71-.992a.705.705 0 0 0 .254-.957.693.693 0 0 0-.949-.258l-1.71.992v-1.984a.7.7 0 0 0-.696-.703.7.7 0 0 0-.695.703v1.984l-1.711-.992a.699.699 0 1 0-.696 1.215l1.707.992-1.707.992a.702.702 0 0 0 .348 1.309.7.7 0 0 0 .348-.094l1.71-.996v1.988a.695.695 0 1 0 1.391 0v-1.988l1.711.996a.694.694 0 0 0 .95-.258.705.705 0 0 0-.255-.957M11.805 30.54l-1.711-.993 1.71-.992a.705.705 0 0 0 .255-.957.693.693 0 0 0-.95-.258l-1.71.992v-1.984a.7.7 0 0 0-.696-.703.7.7 0 0 0-.695.703v1.984l-1.711-.992a.693.693 0 0 0-.95.258.7.7 0 0 0 .255.957l1.71.992-1.71.992a.701.701 0 0 0 .695 1.215l1.71-.996v1.988a.695.695 0 1 0 1.391 0v-1.988l1.711.996a.692.692 0 0 0 .95-.258.705.705 0 0 0-.254-.957M22.55 33.445a.73.73 0 0 1-.35-.093.7.7 0 0 1-.25-.957l3.5-6a.7.7 0 0 1 .956-.254.7.7 0 0 1 .25.957l-3.5 6a.7.7 0 0 1-.605.347" style="stroke:none;fill-rule:nonzero;fill:#2c404b;fill-opacity:1"/></svg>