<svg xmlns="http://www.w3.org/2000/svg" width="34pt" height="34pt" viewBox="0 0 34 34"><path d="M14.414 6.64c.066-.769.219-1.515.434-2.242a8.85 8.85 0 0 0-5.989 7.618c-.421 4.843 3.172 9.113 8.036 9.539q.392.035.785.035a8.75 8.75 0 0 0 7.093-3.621c-.285-.008-.574-.016-.84-.04-5.75-.503-10.019-5.554-9.519-11.288" style="stroke:none;fill-rule:nonzero;fill:#ffea00;fill-opacity:1"/><path d="M16.895 21.555c-4.864-.426-8.457-4.692-8.036-9.535a8.84 8.84 0 0 1 5.989-7.622 11.3 11.3 0 0 0-.434 2.247c-.5 5.73 3.77 10.78 9.52 11.285.265.023.554.03.84.039a8.74 8.74 0 0 1-7.094 3.617q-.393.002-.785-.031m9.136-4.203c-.23-.465-.699-.766-1.218-.782-.258-.008-.516-.015-.758-.035a9.03 9.03 0 0 1-6.157-3.191 8.92 8.92 0 0 1-2.09-6.578 10 10 0 0 1 .38-1.97c.152-.5.007-1.042-.368-1.401a1.4 1.4 0 0 0-1.418-.32 10.24 10.24 0 0 0-6.937 8.82 10.11 10.11 0 0 0 2.36 7.449 10.18 10.18 0 0 0 6.945 3.605c.304.024.609.04.91.04 3.285 0 6.285-1.528 8.226-4.196.305-.418.352-.973.125-1.441M18.969 30.54l-1.711-.993 1.71-.992a.705.705 0 0 0 .255-.957.693.693 0 0 0-.95-.258l-1.71.992v-1.984a.7.7 0 0 0-.696-.703.7.7 0 0 0-.695.703v1.984l-1.711-.992a.699.699 0 1 0-.695 1.215l1.707.992-1.707.992a.702.702 0 0 0 .347 1.309.7.7 0 0 0 .348-.094l1.71-.996v1.988a.695.695 0 1 0 1.392 0v-1.988l1.71.996a.694.694 0 0 0 .95-.258.705.705 0 0 0-.254-.957" style="stroke:none;fill-rule:nonzero;fill:#2c404b;fill-opacity:1"/><path d="M19.992 10.398c-3.152 0-5.758 2.313-6.238 5.32a3.9 3.9 0 0 0-2.074-.585A3.983 3.983 0 0 0 7.69 19.12a3.95 3.95 0 0 0 2.579 3.727h11.214a6.31 6.31 0 0 0 4.828-6.133c0-3.485-2.835-6.317-6.32-6.317" style="stroke:none;fill-rule:nonzero;fill:#cfd6dc;fill-opacity:1"/><path d="M10.27 22.848A3.95 3.95 0 0 1 7.69 19.12a3.983 3.983 0 0 1 3.989-3.988c.758 0 1.476.21 2.074.586.48-3.008 3.086-5.32 6.238-5.32a6.32 6.32 0 0 1 6.317 6.316 6.306 6.306 0 0 1-4.829 6.133Zm9.722-13.852a7.68 7.68 0 0 0-7.172 4.856 5.396 5.396 0 0 0-6.531 5.27c0 2.241 1.406 4.269 3.496 5.038l.235.086h11.628l.16-.039a7.68 7.68 0 0 0 5.903-7.492c0-4.254-3.461-7.719-7.719-7.719" style="stroke:none;fill-rule:nonzero;fill:#2c404b;fill-opacity:1"/></svg>