<svg xmlns="http://www.w3.org/2000/svg" width="34pt" height="34pt" viewBox="0 0 34 34"><path d="M15.527 6.64c.067-.769.215-1.515.434-2.242a8.85 8.85 0 0 0-5.988 7.618c-.426 4.843 3.172 9.113 8.03 9.539q.4.035.786.035a8.75 8.75 0 0 0 7.098-3.621c-.29-.008-.575-.016-.844-.04-5.746-.503-10.02-5.554-9.516-11.288" style="stroke:none;fill-rule:nonzero;fill:#ffea00;fill-opacity:1"/><path d="M18.004 21.555c-4.86-.426-8.457-4.692-8.031-9.535a8.84 8.84 0 0 1 5.988-7.622 11 11 0 0 0-.434 2.247c-.504 5.73 3.77 10.78 9.516 11.285.27.023.555.03.844.039a8.74 8.74 0 0 1-7.098 3.617 9 9 0 0 1-.785-.031m9.137-4.203a1.4 1.4 0 0 0-1.215-.782c-.258-.008-.52-.015-.762-.035a9.03 9.03 0 0 1-6.152-3.191 8.92 8.92 0 0 1-2.09-6.578 10 10 0 0 1 .379-1.97c.148-.5.008-1.042-.371-1.401a1.39 1.39 0 0 0-1.418-.32 10.24 10.24 0 0 0-6.934 8.82 10.1 10.1 0 0 0 2.36 7.449 10.18 10.18 0 0 0 6.945 3.605c.3.024.605.04.906.04 3.29 0 6.285-1.528 8.227-4.196a1.39 1.39 0 0 0 .125-1.441M20.031 30.54l-1.71-.993 1.71-.992a.705.705 0 0 0 .254-.957.693.693 0 0 0-.95-.258l-1.71.992v-1.984a.7.7 0 0 0-.695-.703c-.387 0-.7.316-.7.703v1.984l-1.71-.992a.694.694 0 0 0-.95.258.703.703 0 0 0 .258.957l1.707.992-1.707.992a.702.702 0 0 0 .348 1.309.7.7 0 0 0 .344-.094l1.71-.996v1.988a.699.699 0 1 0 1.395 0v-1.988l1.71.996a.694.694 0 0 0 .95-.258.705.705 0 0 0-.254-.957M28.332 30.54l-1.71-.993 1.71-.992a.705.705 0 0 0 .254-.957.7.7 0 0 0-.953-.258l-1.707.992v-1.984a.7.7 0 0 0-.7-.703.7.7 0 0 0-.695.703v1.984l-1.71-.992a.694.694 0 0 0-.95.258.705.705 0 0 0 .254.957l1.71.992-1.71.992a.705.705 0 0 0-.254.957.69.69 0 0 0 .95.258l1.71-.996v1.988a.698.698 0 1 0 1.395 0v-1.988l1.707.996q.17.094.347.094a.7.7 0 0 0 .606-.352.705.705 0 0 0-.254-.957M11.73 30.54l-1.71-.993 1.71-.992a.705.705 0 0 0 .254-.957.693.693 0 0 0-.949-.258l-1.71.992v-1.984a.7.7 0 0 0-.696-.703.7.7 0 0 0-.695.703v1.984l-1.711-.992a.699.699 0 1 0-.696 1.215l1.707.992-1.707.992a.702.702 0 0 0 .348 1.309.7.7 0 0 0 .348-.094l1.71-.996v1.988a.695.695 0 1 0 1.391 0v-1.988l1.711.996a.694.694 0 0 0 .95-.258.705.705 0 0 0-.255-.957" style="stroke:none;fill-rule:nonzero;fill:#2c404b;fill-opacity:1"/><path d="M21.105 10.398a6.32 6.32 0 0 0-6.238 5.32 3.9 3.9 0 0 0-2.074-.585 3.984 3.984 0 0 0-3.992 3.988 3.95 3.95 0 0 0 2.582 3.727h11.21a6.31 6.31 0 0 0 4.829-6.133 6.32 6.32 0 0 0-6.317-6.317" style="stroke:none;fill-rule:nonzero;fill:#cfd6dc;fill-opacity:1"/><path d="M11.383 22.848A3.95 3.95 0 0 1 8.8 19.12a3.986 3.986 0 0 1 3.992-3.988c.758 0 1.477.21 2.074.586a6.32 6.32 0 0 1 6.238-5.32 6.32 6.32 0 0 1 6.317 6.316 6.31 6.31 0 0 1-4.828 6.133Zm9.722-13.852a7.68 7.68 0 0 0-7.171 4.856 5.396 5.396 0 0 0-6.531 5.27c0 2.241 1.406 4.269 3.495 5.038l.235.086h11.629l.16-.039a7.68 7.68 0 0 0 5.898-7.492c0-4.254-3.46-7.719-7.715-7.719" style="stroke:none;fill-rule:nonzero;fill:#2c404b;fill-opacity:1"/></svg>