<svg xmlns="http://www.w3.org/2000/svg" width="34pt" height="34pt" viewBox="0 0 34 34"><path d="m12.172 30.52-1.711-.997 1.71-.992a.705.705 0 0 0 .255-.957.69.69 0 0 0-.95-.254l-1.71.992v-1.988a.695.695 0 1 0-1.39 0l-.001 1.988-1.71-.992a.69.69 0 0 0-.95.254.7.7 0 0 0 .254.957l1.71.992-1.71.997a.697.697 0 0 0-.254.953.687.687 0 0 0 .95.257l1.71-.992v1.985c0 .39.309.703.695.703a.7.7 0 0 0 .696-.703v-1.985l1.71.992a.694.694 0 0 0 .95-.257.7.7 0 0 0-.254-.953M14.617 33.426a.699.699 0 0 1-.602-1.055l3.5-6a.7.7 0 0 1 1.207.707l-3.5 6a.7.7 0 0 1-.605.348M19.52 33.426a.7.7 0 0 1-.352-.098.697.697 0 0 1-.254-.957l3.5-6a.7.7 0 1 1 1.21.707l-3.499 6a.7.7 0 0 1-.605.348" style="stroke:none;fill-rule:nonzero;fill:#2c404b;fill-opacity:1"/><path d="M20.664 10.375a6.325 6.325 0 0 0-6.238 5.32 3.987 3.987 0 0 0-6.066 3.406 3.94 3.94 0 0 0 2.581 3.723h11.211a6.306 6.306 0 0 0 4.828-6.129 6.32 6.32 0 0 0-6.316-6.32" style="stroke:none;fill-rule:nonzero;fill:#cfd6dc;fill-opacity:1"/><path d="M10.941 22.824a3.95 3.95 0 0 1-2.582-3.722 3.987 3.987 0 0 1 6.067-3.407 6.325 6.325 0 0 1 6.238-5.32 6.32 6.32 0 0 1 6.316 6.32 6.306 6.306 0 0 1-4.828 6.13Zm9.723-13.847a7.68 7.68 0 0 0-7.172 4.855 5.396 5.396 0 0 0-6.531 5.27 5.39 5.39 0 0 0 3.496 5.039l.234.086h11.63l.16-.04a7.68 7.68 0 0 0 5.898-7.492c0-4.257-3.461-7.718-7.715-7.718" style="stroke:none;fill-rule:nonzero;fill:#2c404b;fill-opacity:1"/></svg>