<svg xmlns="http://www.w3.org/2000/svg" width="34pt" height="34pt" viewBox="0 0 34 34"><path d="m23.219 30.52-1.711-.997 1.71-.992a.705.705 0 0 0 .255-.957.69.69 0 0 0-.95-.254l-1.71.992v-1.988a.695.695 0 1 0-1.39 0l-.001 1.988-1.711-.992a.697.697 0 1 0-.695 1.211l1.707.992-1.707.997a.698.698 0 1 0 .695 1.21l1.71-.992v1.985c0 .39.31.703.696.703a.7.7 0 0 0 .695-.703v-1.985l1.711.992a.694.694 0 0 0 .95-.257.7.7 0 0 0-.254-.953M14.918 30.52l-1.711-.997 1.711-.992a.705.705 0 0 0 .254-.957.69.69 0 0 0-.95-.254l-1.71.992v-1.988a.695.695 0 1 0-1.39 0v1.988L9.41 27.32a.69.69 0 0 0-.95.254.7.7 0 0 0 .255.957l1.71.992-1.71.997a.697.697 0 0 0-.254.953.69.69 0 0 0 .95.257l1.71-.992v1.985c0 .39.309.703.695.703a.7.7 0 0 0 .696-.703v-1.985l1.71.992a.692.692 0 0 0 .95-.258.7.7 0 0 0-.254-.952" style="stroke:none;fill-rule:nonzero;fill:#2c404b;fill-opacity:1"/><path d="M19.992 10.375c-3.152 0-5.758 2.316-6.238 5.32a3.986 3.986 0 0 0-6.063 3.406 3.95 3.95 0 0 0 2.579 3.723h11.214a6.306 6.306 0 0 0 4.828-6.129 6.326 6.326 0 0 0-6.32-6.32" style="stroke:none;fill-rule:nonzero;fill:#cfd6dc;fill-opacity:1"/><path d="M10.27 22.824a3.95 3.95 0 0 1-2.579-3.722 3.986 3.986 0 0 1 6.063-3.407c.48-3.004 3.086-5.32 6.238-5.32a6.32 6.32 0 0 1 6.317 6.32 6.3 6.3 0 0 1-4.829 6.13Zm9.722-13.847a7.68 7.68 0 0 0-7.172 4.855 5.396 5.396 0 0 0-6.531 5.27 5.39 5.39 0 0 0 3.496 5.039l.235.086h11.628l.16-.04a7.68 7.68 0 0 0 5.903-7.492c0-4.257-3.461-7.718-7.719-7.718" style="stroke:none;fill-rule:nonzero;fill:#2c404b;fill-opacity:1"/></svg>