<svg xmlns="http://www.w3.org/2000/svg" width="34pt" height="34pt" viewBox="0 0 34 34"><path d="m20.031 30.52-1.71-.997 1.71-.992a.705.705 0 0 0 .254-.957.69.69 0 0 0-.95-.254l-1.71.992v-1.988a.698.698 0 1 0-1.395 0v1.988l-1.71-.992a.693.693 0 0 0-.95.254.7.7 0 0 0 .258.957l1.707.992-1.707.997a.698.698 0 0 0 .692 1.21l1.71-.992v1.985a.7.7 0 0 0 .7.703.7.7 0 0 0 .695-.703v-1.985l1.71.992a.694.694 0 0 0 .95-.257.7.7 0 0 0-.254-.953M28.332 30.52l-1.71-.997 1.71-.992a.705.705 0 0 0 .254-.957.697.697 0 0 0-.953-.254l-1.707.992v-1.988a.699.699 0 1 0-1.395 0v1.988l-1.71-.992a.693.693 0 0 0-.95.254.705.705 0 0 0 .254.957l1.71.992-1.71.997a.7.7 0 0 0 .348 1.304.7.7 0 0 0 .347-.094l1.711-.992v1.985c0 .39.313.703.696.703a.7.7 0 0 0 .699-.703v-1.985l1.707.992q.17.094.347.094a.7.7 0 0 0 .352-1.305M11.73 30.52l-1.71-.997 1.71-.992a.705.705 0 0 0 .254-.957.69.69 0 0 0-.949-.254l-1.71.992v-1.988a.695.695 0 1 0-1.39 0l-.001 1.988-1.711-.992a.697.697 0 1 0-.696 1.211l1.707.992-1.707.997a.698.698 0 1 0 .696 1.21l1.71-.992v1.985c0 .39.31.703.696.703a.7.7 0 0 0 .695-.703v-1.985l1.711.992a.694.694 0 0 0 .95-.257.7.7 0 0 0-.255-.953" style="stroke:none;fill-rule:nonzero;fill:#2c404b;fill-opacity:1"/><path d="M21.105 10.375a6.325 6.325 0 0 0-6.238 5.32 3.987 3.987 0 0 0-6.066 3.406 3.95 3.95 0 0 0 2.582 3.723h11.21a6.306 6.306 0 0 0 4.829-6.129 6.32 6.32 0 0 0-6.317-6.32" style="stroke:none;fill-rule:nonzero;fill:#cfd6dc;fill-opacity:1"/><path d="M11.383 22.824A3.95 3.95 0 0 1 8.8 19.102a3.99 3.99 0 0 1 6.066-3.407 6.325 6.325 0 0 1 6.238-5.32 6.32 6.32 0 0 1 6.317 6.32 6.306 6.306 0 0 1-4.828 6.13Zm9.722-13.847a7.68 7.68 0 0 0-7.171 4.855 5.396 5.396 0 0 0-6.531 5.27 5.39 5.39 0 0 0 3.495 5.039l.235.086h11.629l.16-.04a7.68 7.68 0 0 0 5.898-7.492c0-4.257-3.46-7.718-7.715-7.718" style="stroke:none;fill-rule:nonzero;fill:#2c404b;fill-opacity:1"/></svg>