<svg xmlns="http://www.w3.org/2000/svg" width="34pt" height="34pt" viewBox="0 0 34 34"><path d="M25.191 19.113q0 .945-.21 1.828a5.27 5.27 0 0 0-6.441 2.64c-.13-.007-.25-.019-.38-.019a3.845 3.845 0 0 0-3.808 3.29c-3.223-1.098-5.543-4.16-5.543-7.739 0-4.511 3.68-8.191 8.191-8.191s8.191 3.68 8.191 8.191M17 8.781a.7.7 0 0 1-.7-.699V4.687a.699.699 0 1 1 1.4 0v3.395c0 .387-.313.7-.7.7M24.8 12.012a.7.7 0 0 1-.495-.203.703.703 0 0 1 0-.993l2.398-2.398a.703.703 0 0 1 .992 0 .7.7 0 0 1 0 .988l-2.402 2.403a.7.7 0 0 1-.492.203M6.8 30.012a.7.7 0 0 1-.495-.203.703.703 0 0 1 0-.993l2.402-2.398a.698.698 0 1 1 .988.988L7.297 29.81a.7.7 0 0 1-.496.203M9.2 12.012a.7.7 0 0 1-.493-.203L6.305 9.406a.7.7 0 0 1 0-.988.703.703 0 0 1 .992 0l2.398 2.398a.703.703 0 0 1 0 .993.7.7 0 0 1-.496.203M5.969 19.813h-3.39a.7.7 0 1 1 0-1.399h3.39c.386 0 .703.313.703.7s-.317.698-.703.698M31.422 19.813h-3.39a.7.7 0 0 1-.704-.7c0-.386.317-.699.703-.699h3.39a.7.7 0 1 1 0 1.398" style="stroke:none;fill-rule:nonzero;fill:#f3cd00;fill-opacity:1"/><path d="M23.273 22.05a3.89 3.89 0 0 0-3.84 3.278 2.45 2.45 0 0 0-3.73 2.094 2.43 2.43 0 0 0 1.586 2.293h6.898a3.884 3.884 0 0 0 2.973-3.774 3.893 3.893 0 0 0-3.887-3.89" style="stroke:none;fill-rule:nonzero;fill:#e4e9eb;fill-opacity:1"/></svg>