<svg xmlns="http://www.w3.org/2000/svg" width="34pt" height="34pt" viewBox="0 0 34 34"><path d="M15.41 19.3a5.4 5.4 0 0 0-4.73 2.81 7.5 7.5 0 0 1-.59-2.919c0-4.12 3.351-7.472 7.469-7.472 2.382 0 4.5 1.113 5.863 2.851a7.68 7.68 0 0 0-6.871 4.852 5.3 5.3 0 0 0-1.14-.121M17.563 10.023c.386 0 .699-.312.699-.699V6.285a.699.699 0 1 0-1.399 0v3.04c0 .386.313.698.7.698M27.184 9.57a.703.703 0 0 0-.993 0l-2.148 2.149a.701.701 0 0 0 .992.988l2.149-2.145a.703.703 0 0 0 0-.992M11.078 12.707a.7.7 0 0 0 0-.988L8.93 9.57a.7.7 0 0 0-.989 0 .703.703 0 0 0 0 .992l2.149 2.145a.693.693 0 0 0 .988 0M7.691 18.492H4.656a.699.699 0 1 0 0 1.399h3.035a.7.7 0 0 0 .704-.7c0-.386-.317-.699-.704-.699" style="stroke:none;fill-rule:nonzero;fill:#f3cd00;fill-opacity:1"/><path d="M23.727 15.965c-3.153 0-5.758 2.312-6.239 5.32a3.987 3.987 0 0 0-6.066 3.406 3.95 3.95 0 0 0 2.582 3.723h11.21a6.31 6.31 0 0 0 4.829-6.133 6.32 6.32 0 0 0-6.316-6.316" style="stroke:none;fill-rule:nonzero;fill:#e4e9eb;fill-opacity:1"/></svg>