<svg xmlns="http://www.w3.org/2000/svg" width="34pt" height="34pt" viewBox="0 0 34 34"><path d="M13.738 17.852c-1.738 0-3.289.832-4.277 2.12a7.474 7.474 0 0 1 7.129-9.7c2.379.001 4.5 1.11 5.86 2.85-.13-.009-.27-.009-.4-.009a7.685 7.685 0 0 0-7.171 4.86 5.2 5.2 0 0 0-1.14-.121M16.59 8.574a.7.7 0 0 0 .703-.699V4.84a.702.702 0 1 0-1.402 0v3.035c0 .387.312.7.699.7M26.21 8.121a.705.705 0 0 0-.987 0l-2.149 2.149a.703.703 0 0 0 0 .992.71.71 0 0 0 .992 0l2.145-2.149a.703.703 0 0 0 0-.992M10.11 11.262a.703.703 0 0 0 0-.992L7.96 8.125a.69.69 0 0 0-.987 0 .69.69 0 0 0 0 .988l2.144 2.149a.7.7 0 0 0 .496.203c.18 0 .36-.067.496-.203M6.723 17.043h-3.04c-.382 0-.699.312-.699.7 0 .386.317.698.7.698h3.039a.699.699 0 1 0 0-1.398" style="stroke:none;fill-rule:nonzero;fill:#f3cd00;fill-opacity:1"/><path d="M28.371 20.832v.129a4.7 4.7 0 0 0-1.242-.16 5.26 5.26 0 0 0-4.738 2.93c-.13-.008-.25-.02-.38-.02a3.86 3.86 0 0 0-3.8 3.25h-5.883c-1.52-.55-2.578-2-2.578-3.719a3.98 3.98 0 0 1 3.988-3.988c.762 0 1.48.207 2.082.578.47-3 3.078-5.32 6.23-5.32 3.49 0 6.321 2.84 6.321 6.32" style="stroke:none;fill-rule:nonzero;fill:#e4e9eb;fill-opacity:1"/><path d="M27.125 22.2a3.89 3.89 0 0 0-3.836 3.277 2.454 2.454 0 0 0-3.734 2.094c0 1.054.656 1.949 1.59 2.292h6.898a3.884 3.884 0 0 0 2.973-3.773 3.896 3.896 0 0 0-3.891-3.89" style="stroke:none;fill-rule:nonzero;fill:#e4e9eb;fill-opacity:1"/></svg>