<svg xmlns="http://www.w3.org/2000/svg" width="34pt" height="34pt" viewBox="0 0 34 34"><path d="M27.71 15.645a7.6 7.6 0 0 1-.8 3.421 5.28 5.28 0 0 0-4.172-2.05 5.24 5.24 0 0 0-4.726 2.941c-.133-.02-.25-.02-.383-.02a3.87 3.87 0 0 0-3.809 3.239h-3.8l-.23-.078c-2.099-.77-3.5-2.801-3.5-5.043 0-2.97 2.42-5.387 5.39-5.387q.585 0 1.14.117a7.68 7.68 0 0 1 7.168-4.86c4.262 0 7.723 3.47 7.723 7.72" style="stroke:none;fill-rule:nonzero;fill:#e4e9eb;fill-opacity:1"/><path d="M22.746 18.414a3.89 3.89 0 0 0-3.84 3.273 2.4 2.4 0 0 0-1.277-.359 2.45 2.45 0 0 0-2.457 2.453c0 1.055.656 1.95 1.59 2.293h6.898a3.884 3.884 0 0 0 2.973-3.773 3.89 3.89 0 0 0-3.887-3.887" style="stroke:none;fill-rule:nonzero;fill:#e4e9eb;fill-opacity:1"/></svg>