<svg xmlns="http://www.w3.org/2000/svg" width="34pt" height="34pt" viewBox="0 0 34 34"><path d="M15.41 14.148a5.39 5.39 0 0 0-4.73 2.813 7.5 7.5 0 0 1-.59-2.91c0-4.121 3.351-7.473 7.469-7.473 2.382 0 4.5 1.113 5.863 2.852-3.113.12-5.762 2.039-6.871 4.851a5.3 5.3 0 0 0-1.14-.133M17.563 4.883c.386 0 .699-.313.699-.7V1.146a.699.699 0 1 0-1.399 0v3.039c0 .386.313.699.7.699M27.184 4.43a.703.703 0 0 0-.993 0l-2.148 2.148a.701.701 0 0 0 .992.988l2.149-2.144a.703.703 0 0 0 0-.992M11.078 7.566a.7.7 0 0 0 0-.988L8.93 4.43a.7.7 0 0 0-.989 0 .703.703 0 0 0 0 .992l2.149 2.144a.693.693 0 0 0 .988 0M7.691 13.352H4.656a.699.699 0 1 0 0 1.398h3.035a.7.7 0 0 0 .704-.7c0-.386-.317-.698-.704-.698" style="stroke:none;fill-rule:nonzero;fill:#f3cd00;fill-opacity:1"/><path d="M23.727 10.82c-3.153 0-5.758 2.313-6.239 5.32a3.9 3.9 0 0 0-2.074-.585 3.986 3.986 0 0 0-3.992 3.988 3.95 3.95 0 0 0 2.582 3.727h11.21a6.31 6.31 0 0 0 4.829-6.133 6.32 6.32 0 0 0-6.316-6.317M17.074 32.668a.699.699 0 0 1-.602-1.055l3.5-6a.7.7 0 0 1 1.208.707l-3.5 6a.7.7 0 0 1-.606.348M21.977 32.668a.7.7 0 0 1-.352-.098.697.697 0 0 1-.254-.957l3.5-6a.7.7 0 0 1 1.211.707l-3.5 6a.7.7 0 0 1-.605.348" style="stroke:none;fill-rule:nonzero;fill:#e4e9eb;fill-opacity:1"/><path d="M11.176 33.555a.704.704 0 0 1-.61-1.047l3.239-5.664-3.492.695a.69.69 0 0 1-.715-.293.69.69 0 0 1-.008-.773l5.5-8.5a.7.7 0 1 1 1.172.761l-4.598 7.11 3.375-.676a.702.702 0 0 1 .742 1.035l-4 7a.7.7 0 0 1-.605.352" style="stroke:none;fill-rule:nonzero;fill:#f3cd00;fill-opacity:1"/></svg>