<svg xmlns="http://www.w3.org/2000/svg" width="34pt" height="34pt" viewBox="0 0 34 34"><path d="m12.844 26.617-1.711-.992 1.71-.992a.705.705 0 0 0 .255-.957.7.7 0 0 0-.953-.258l-1.707.992v-1.984a.7.7 0 0 0-.7-.703.7.7 0 0 0-.695.703v1.984l-1.711-.992a.694.694 0 0 0-.95.258.705.705 0 0 0 .255.957l1.71.992-1.71.992a.705.705 0 0 0-.254.957.69.69 0 0 0 .949.258l1.711-.996v1.988a.698.698 0 1 0 1.395 0v-1.988l1.707.996q.17.094.347.094a.7.7 0 0 0 .606-.352.705.705 0 0 0-.254-.957M15.29 29.523a.699.699 0 0 1-.605-1.05l3.499-6a.706.706 0 0 1 .96-.254.7.7 0 0 1 .25.957l-3.5 6a.69.69 0 0 1-.605.347M20.188 29.523a.73.73 0 0 1-.352-.093.7.7 0 0 1-.25-.957l3.5-6a.697.697 0 1 1 1.207.703l-3.5 6a.69.69 0 0 1-.605.347M19.992 4.477a7.67 7.67 0 0 0-7.172 4.855 5.396 5.396 0 0 0-6.531 5.27 5.38 5.38 0 0 0 3.496 5.035l.235.086h11.628l.16-.04a7.674 7.674 0 0 0 5.903-7.488c0-4.257-3.461-7.718-7.719-7.718" style="stroke:none;fill-rule:nonzero;fill:#e4e9eb;fill-opacity:1"/></svg>