<svg xmlns="http://www.w3.org/2000/svg" width="34pt" height="34pt" viewBox="0 0 34 34"><path d="M10.492 16.36c-1.539 0-2.93.652-3.91 1.69-.309-1.128-.41-2.32-.309-3.53a10.26 10.26 0 0 1 6.938-8.82c.152-.052.3-.071.453-.071.348 0 .7.133.969.39.37.36.52.91.37 1.41a9 9 0 0 0-.382 1.962 9 9 0 0 0 .313 3.27 7.64 7.64 0 0 0-3.301 3.82 5.3 5.3 0 0 0-1.14-.122" style="stroke:none;fill-rule:nonzero;fill:#f3cd00;fill-opacity:1"/><path d="M25.121 19.34v.129c-.398-.11-.82-.16-1.25-.16a5.26 5.26 0 0 0-4.726 2.93c-.133-.009-.25-.02-.383-.02a3.86 3.86 0 0 0-3.809 3.25H9.082c-1.52-.547-2.578-2-2.578-3.719a3.98 3.98 0 0 1 3.988-3.988 3.9 3.9 0 0 1 2.07.578c.481-3 3.09-5.32 6.239-5.32 3.492 0 6.32 2.84 6.32 6.32" style="stroke:none;fill-rule:nonzero;fill:#e4e9eb;fill-opacity:1"/><path d="M23.879 20.71a3.89 3.89 0 0 0-3.84 3.274 2.454 2.454 0 0 0-3.734 2.094c0 1.055.656 1.95 1.59 2.293h6.898a3.884 3.884 0 0 0 2.973-3.773 3.89 3.89 0 0 0-3.887-3.887" style="stroke:none;fill-rule:nonzero;fill:#e4e9eb;fill-opacity:1"/></svg>