<svg xmlns="http://www.w3.org/2000/svg" width="34pt" height="34pt" viewBox="0 0 34 34"><path d="M11.813 13.11a5.38 5.38 0 0 0-3.903 1.68 9.9 9.9 0 0 1-.308-3.52 10.23 10.23 0 0 1 6.93-8.82c.148-.052.3-.071.448-.071.352 0 .7.129.97.39.382.36.519.91.37 1.41-.199.65-.32 1.321-.379 1.958a8.9 8.9 0 0 0 .309 3.273 7.62 7.62 0 0 0-3.3 3.817 5.5 5.5 0 0 0-1.137-.118" style="stroke:none;fill-rule:nonzero;fill:#f3cd00;fill-opacity:1"/><path d="M20.125 9.773a6.32 6.32 0 0 0-6.238 5.32 3.94 3.94 0 0 0-2.078-.585 3.983 3.983 0 0 0-3.989 3.988 3.945 3.945 0 0 0 2.582 3.727h11.211a6.31 6.31 0 0 0 4.828-6.133 6.32 6.32 0 0 0-6.316-6.317M14.195 31.621a.7.7 0 0 1-.351-.094.7.7 0 0 1-.25-.957l3.5-6a.7.7 0 0 1 .957-.254.7.7 0 0 1 .25.957l-3.5 6a.7.7 0 0 1-.606.348" style="stroke:none;fill-rule:nonzero;fill:#e4e9eb;fill-opacity:1"/></svg>