<svg xmlns="http://www.w3.org/2000/svg" width="34pt" height="34pt" viewBox="0 0 34 34"><path d="M12.094 13.11a5.38 5.38 0 0 0-3.903 1.68 9.9 9.9 0 0 1-.308-3.52 10.23 10.23 0 0 1 6.93-8.82c.148-.052.3-.071.449-.071.351 0 .699.129.968.39.383.36.524.91.372 1.41-.2.65-.32 1.321-.38 1.958a8.9 8.9 0 0 0 .31 3.273 7.62 7.62 0 0 0-3.302 3.817 5.5 5.5 0 0 0-1.136-.118" style="stroke:none;fill-rule:nonzero;fill:#f3cd00;fill-opacity:1"/><path d="M20.406 9.773a6.32 6.32 0 0 0-6.238 5.32 3.94 3.94 0 0 0-2.074-.585 3.984 3.984 0 0 0-3.992 3.988 3.945 3.945 0 0 0 2.582 3.727h11.21a6.31 6.31 0 0 0 4.829-6.133 6.32 6.32 0 0 0-6.317-6.317M7.977 31.621a.699.699 0 0 1-.605-1.05l3.5-6a.706.706 0 0 1 .96-.255.7.7 0 0 1 .25.957l-3.5 6a.7.7 0 0 1-.605.348M12.879 31.621a.73.73 0 0 1-.356-.094.7.7 0 0 1-.25-.957l3.5-6a.697.697 0 1 1 1.207.703l-3.5 6a.7.7 0 0 1-.601.348M17.777 31.621a.699.699 0 0 1-.605-1.05l3.5-6a.706.706 0 0 1 .96-.255.7.7 0 0 1 .25.957l-3.5 6a.7.7 0 0 1-.605.348" style="stroke:none;fill-rule:nonzero;fill:#e4e9eb;fill-opacity:1"/></svg>