<svg xmlns="http://www.w3.org/2000/svg" width="34pt" height="34pt" viewBox="0 0 34 34"><path d="M12.652 12.664a5.4 5.4 0 0 0-3.898 1.68c-.309-1.13-.418-2.32-.309-3.52a10.23 10.23 0 0 1 6.93-8.82q.224-.07.45-.07a1.398 1.398 0 0 1 1.34 1.8c-.2.653-.321 1.32-.38 1.961a8.9 8.9 0 0 0 .309 3.27 7.64 7.64 0 0 0-3.301 3.82 5.5 5.5 0 0 0-1.14-.12" style="stroke:none;fill-rule:nonzero;fill:#f3cd00;fill-opacity:1"/><path d="M20.969 9.328a6.325 6.325 0 0 0-6.239 5.32 3.95 3.95 0 0 0-2.078-.582 3.983 3.983 0 0 0-3.988 3.989 3.94 3.94 0 0 0 2.582 3.722h11.211a6.306 6.306 0 0 0 4.828-6.129c0-3.484-2.832-6.32-6.316-6.32M14.316 31.18a.7.7 0 0 1-.351-.098.7.7 0 0 1-.254-.957l3.5-6a.7.7 0 0 1 1.21.707l-3.5 6a.7.7 0 0 1-.605.348M19.215 31.18a.7.7 0 0 1-.602-1.055l3.5-6a.7.7 0 0 1 1.207.707l-3.5 6a.7.7 0 0 1-.605.348" style="stroke:none;fill-rule:nonzero;fill:#e4e9eb;fill-opacity:1"/><path d="M8.414 32.066a.701.701 0 0 1-.605-1.05l3.238-5.664-3.492.699a.7.7 0 0 1-.727-1.067l5.5-8.5a.7.7 0 0 1 1.176.762l-4.598 7.106 3.371-.672a.698.698 0 0 1 .746 1.03l-4 7a.7.7 0 0 1-.609.356" style="stroke:none;fill-rule:nonzero;fill:#f3cd00;fill-opacity:1"/></svg>