<svg xmlns="http://www.w3.org/2000/svg" width="34pt" height="34pt" viewBox="0 0 34 34"><path d="M19.992 4.676A7.68 7.68 0 0 0 12.82 9.53a5.396 5.396 0 0 0-6.531 5.27 5.39 5.39 0 0 0 3.496 5.039l.235.086h11.628l.16-.04a7.68 7.68 0 0 0 5.903-7.491c0-4.258-3.461-7.72-7.719-7.72M11.598 29.324a.699.699 0 0 1-.602-1.055l3.5-6a.7.7 0 0 1 1.207.707l-3.5 6a.7.7 0 0 1-.605.348M16.5 29.324a.7.7 0 0 1-.352-.097.697.697 0 0 1-.253-.957l3.5-6a.704.704 0 0 1 .957-.25c.335.195.449.62.253.957l-3.5 6a.7.7 0 0 1-.605.347" style="stroke:none;fill-rule:nonzero;fill:#e4e9eb;fill-opacity:1"/></svg>