<svg xmlns="http://www.w3.org/2000/svg" width="34pt" height="34pt" viewBox="0 0 34 34"><path d="M20.688 4.188a7.68 7.68 0 0 0-7.172 4.855 5.396 5.396 0 0 0-6.531 5.27 5.39 5.39 0 0 0 3.495 5.039l.235.085h11.629l.16-.039a7.68 7.68 0 0 0 5.902-7.492c0-4.258-3.46-7.719-7.718-7.719M13.195 28.836a.7.7 0 0 1-.351-.098.697.697 0 0 1-.254-.957l3.5-6a.7.7 0 0 1 1.21.707l-3.5 6a.71.71 0 0 1-.605.348M18.094 28.836a.699.699 0 0 1-.602-1.055l3.5-6a.7.7 0 0 1 1.207.707l-3.5 6a.7.7 0 0 1-.605.348" style="stroke:none;fill-rule:nonzero;fill:#e4e9eb;fill-opacity:1"/><path d="M7.293 29.813a.697.697 0 0 1-.605-1.047l3.238-5.664-3.492.699a.7.7 0 0 1-.72-.293.7.7 0 0 1-.007-.774l5.5-8.504a.7.7 0 0 1 1.176.762l-4.602 7.11 3.375-.676a.701.701 0 0 1 .746 1.035l-4 7a.7.7 0 0 1-.609.352" style="stroke:none;fill-rule:nonzero;fill:#f3cd00;fill-opacity:1"/></svg>