<svg xmlns="http://www.w3.org/2000/svg" width="34pt" height="34pt" viewBox="0 0 34 34"><path d="m15.652 26.617-1.71-.992 1.71-.992a.705.705 0 0 0 .254-.957.693.693 0 0 0-.949-.258l-1.71.992v-1.984a.7.7 0 0 0-.696-.703.7.7 0 0 0-.696.703v1.984l-1.71-.992a.699.699 0 1 0-.696 1.215l1.707.992-1.707.992a.703.703 0 0 0-.258.957.694.694 0 0 0 .954.258l1.71-.996v1.988a.695.695 0 1 0 1.391 0v-1.988l1.711.996a.694.694 0 0 0 .95-.258.705.705 0 0 0-.255-.957M18.098 29.523a.73.73 0 0 1-.352-.093.7.7 0 0 1-.25-.957l3.5-6a.7.7 0 0 1 .957-.254.7.7 0 0 1 .25.957l-3.5 6a.69.69 0 0 1-.605.347M19.992 4.477a7.67 7.67 0 0 0-7.172 4.855 5.396 5.396 0 0 0-6.531 5.27 5.38 5.38 0 0 0 3.496 5.035l.235.086h11.628l.16-.04a7.674 7.674 0 0 0 5.903-7.488c0-4.257-3.461-7.718-7.719-7.718" style="stroke:none;fill-rule:nonzero;fill:#e4e9eb;fill-opacity:1"/></svg>