<svg xmlns="http://www.w3.org/2000/svg" width="34pt" height="34pt" viewBox="0 0 34 34"><path d="m20.246 26.617-1.71-.992 1.71-.992a.705.705 0 0 0 .254-.957.693.693 0 0 0-.95-.258l-1.71.992v-1.984a.7.7 0 0 0-.695-.703.7.7 0 0 0-.696.703v1.984l-1.71-.992a.693.693 0 0 0-.95.258.705.705 0 0 0 .254.957l1.71.992-1.71.992a.705.705 0 0 0-.254.957.69.69 0 0 0 .95.258l1.71-.996v1.988c0 .387.313.7.696.7a.7.7 0 0 0 .695-.7v-1.988l1.71.996a.687.687 0 0 0 .95-.258.705.705 0 0 0-.254-.957M11.945 26.617l-1.707-.992 1.707-.992a.699.699 0 1 0-.695-1.215l-1.71.992v-1.984a.7.7 0 0 0-.696-.703.7.7 0 0 0-.696.703v1.984l-1.71-.992a.693.693 0 0 0-.95.258.705.705 0 0 0 .254.957l1.711.992-1.71.992a.705.705 0 0 0-.255.957.69.69 0 0 0 .95.258l1.71-.996v1.988a.695.695 0 1 0 1.39 0l.001-1.988 1.711.996a.694.694 0 0 0 .953-.258.707.707 0 0 0-.258-.957M22.695 29.523a.699.699 0 0 1-.605-1.05l3.5-6a.7.7 0 0 1 .957-.254c.336.195.45.625.254.957l-3.5 6a.7.7 0 0 1-.606.347M20.887 4.477a7.675 7.675 0 0 0-7.172 4.855 5.396 5.396 0 0 0-6.531 5.27 5.38 5.38 0 0 0 3.496 5.035l.234.086h11.629l.16-.04a7.674 7.674 0 0 0 5.902-7.488c0-4.257-3.46-7.718-7.718-7.718" style="stroke:none;fill-rule:nonzero;fill:#e4e9eb;fill-opacity:1"/></svg>