<svg xmlns="http://www.w3.org/2000/svg" width="34pt" height="34pt" viewBox="0 0 34 34"><path d="m19.996 26.617-1.71-.992 1.71-.992a.71.71 0 0 0 .258-.957.7.7 0 0 0-.953-.258l-1.711.992v-1.984a.7.7 0 0 0-.695-.703.7.7 0 0 0-.696.703v1.984l-1.71-.992a.693.693 0 0 0-.95.258.705.705 0 0 0 .254.957l1.71.992-1.71.992a.705.705 0 0 0-.254.957.69.69 0 0 0 .95.258l1.71-.996v1.988c0 .387.313.7.696.7a.7.7 0 0 0 .695-.7v-1.988l1.71.996a.694.694 0 0 0 .953-.258.71.71 0 0 0-.257-.957M28.297 26.617l-1.711-.992 1.71-.992a.705.705 0 0 0 .255-.957.693.693 0 0 0-.95-.258l-1.71.992v-1.984a.7.7 0 0 0-.696-.703.7.7 0 0 0-.695.703v1.984l-1.71-.992a.693.693 0 0 0-.95.258.7.7 0 0 0 .254.957l1.71.992-1.71.992a.7.7 0 0 0-.254.957.687.687 0 0 0 .95.258l1.71-.996v1.988a.695.695 0 1 0 1.39 0v-1.988l1.712.996a.692.692 0 0 0 .95-.258.705.705 0 0 0-.255-.957M11.695 26.617l-1.707-.992 1.707-.992a.707.707 0 0 0 .258-.957.7.7 0 0 0-.953-.258l-1.707.992v-1.984a.7.7 0 0 0-.7-.703.7.7 0 0 0-.695.703v1.984l-1.71-.992a.693.693 0 0 0-.95.258.705.705 0 0 0 .254.957l1.711.992-1.71.992a.705.705 0 0 0-.255.957.69.69 0 0 0 .95.258l1.71-.996v1.988a.698.698 0 1 0 1.395 0v-1.988l1.707.996a.694.694 0 0 0 .953-.258.707.707 0 0 0-.258-.957M21.137 4.477a7.675 7.675 0 0 0-7.172 4.855 5.396 5.396 0 0 0-6.531 5.27 5.38 5.38 0 0 0 3.496 5.035l.234.086h11.629l.16-.04a7.674 7.674 0 0 0 5.902-7.488c0-4.257-3.46-7.718-7.718-7.718" style="stroke:none;fill-rule:nonzero;fill:#e4e9eb;fill-opacity:1"/></svg>