<svg xmlns="http://www.w3.org/2000/svg" width="34pt" height="34pt" viewBox="0 0 34 34"><path d="M17 8.336c-3.742 0-6.79 3.047-6.79 6.789S13.259 21.91 17 21.91s6.79-3.043 6.79-6.785-3.048-6.79-6.79-6.79" style="stroke:none;fill-rule:nonzero;fill:#ffea00;fill-opacity:1"/><path d="M17 21.91c-3.742 0-6.79-3.043-6.79-6.785s3.048-6.79 6.79-6.79 6.79 3.048 6.79 6.79S20.741 21.91 17 21.91m0-14.972c-4.516 0-8.187 3.671-8.187 8.187 0 4.512 3.671 8.188 8.187 8.188s8.188-3.676 8.188-8.188c0-4.516-3.672-8.187-8.188-8.187M17 4.793a.7.7 0 0 1-.7-.7V.7a.699.699 0 1 1 1.4 0v3.395c0 .386-.313.699-.7.699M24.8 8.023a.7.7 0 0 1-.495-.203.703.703 0 0 1 0-.992l2.398-2.398a.703.703 0 0 1 .992 0 .7.7 0 0 1 0 .988L25.293 7.82a.7.7 0 0 1-.492.203M6.8 26.023a.7.7 0 0 1-.495-.203.703.703 0 0 1 0-.992l2.402-2.398a.698.698 0 1 1 .988.988L7.297 25.82a.7.7 0 0 1-.496.203M9.2 8.023a.7.7 0 0 1-.493-.203L6.305 5.418a.7.7 0 0 1 0-.988.703.703 0 0 1 .992 0l2.398 2.398a.703.703 0 0 1 0 .992.7.7 0 0 1-.496.203M5.969 15.824h-3.39a.7.7 0 1 1 0-1.398h3.39c.386 0 .703.312.703.699s-.317.7-.703.7M31.422 15.824h-3.39a.7.7 0 0 1-.704-.699c0-.387.317-.7.703-.7h3.39a.7.7 0 1 1 0 1.4" style="stroke:none;fill-rule:nonzero;fill:#2c404b;fill-opacity:1"/><path d="M23.277 18.063a3.89 3.89 0 0 0-3.84 3.273 2.454 2.454 0 0 0-3.734 2.098c0 1.054.656 1.945 1.59 2.289h6.898a3.88 3.88 0 0 0 2.973-3.774 3.89 3.89 0 0 0-3.887-3.887" style="stroke:none;fill-rule:nonzero;fill:#f5f6f7;fill-opacity:1"/><path d="M17.293 25.723a2.43 2.43 0 0 1-1.59-2.29 2.454 2.454 0 0 1 3.735-2.097 3.89 3.89 0 0 1 3.84-3.273 3.89 3.89 0 0 1 3.886 3.886 3.88 3.88 0 0 1-2.973 3.774Zm5.984-9.059a5.27 5.27 0 0 0-4.742 2.93 3.858 3.858 0 0 0-4.23 3.84 3.85 3.85 0 0 0 2.504 3.605l.234.086h7.316l.16-.04a5.26 5.26 0 0 0 4.044-5.136 5.29 5.29 0 0 0-5.286-5.285" style="stroke:none;fill-rule:nonzero;fill:#2c404b;fill-opacity:1"/></svg>