<svg xmlns="http://www.w3.org/2000/svg" width="34pt" height="34pt" viewBox="0 0 34 34"><path d="M20.684 7.5c-3.88 0-7.09 2.848-7.676 6.547a4.85 4.85 0 0 0-2.555-.719 4.904 4.904 0 0 0-4.91 4.91 4.86 4.86 0 0 0 3.176 4.586h13.797c3.406-.82 5.945-3.883 5.945-7.547 0-4.289-3.488-7.777-7.777-7.777" style="stroke:none;fill-rule:nonzero;fill:#f5f6f7;fill-opacity:1"/><path d="M8.719 22.824a4.87 4.87 0 0 1-3.18-4.586 4.907 4.907 0 0 1 4.914-4.91c.934 0 1.817.262 2.555.719.586-3.7 3.797-6.547 7.676-6.547 4.289 0 7.777 3.488 7.777 7.777 0 3.664-2.54 6.727-5.945 7.547ZM20.684 6.102a9.13 9.13 0 0 0-8.625 6.03 6.3 6.3 0 0 0-1.606-.202 6.317 6.317 0 0 0-6.312 6.308c0 2.625 1.644 4.996 4.093 5.899l.235.086h14.215l.16-.04a9.13 9.13 0 0 0 7.015-8.906c0-5.062-4.117-9.175-9.175-9.175" style="stroke:none;fill-rule:nonzero;fill:#2c404b;fill-opacity:1"/></svg>