<svg xmlns="http://www.w3.org/2000/svg" width="34pt" height="34pt" viewBox="0 0 34 34"><path d="M18.672 10.379a6.32 6.32 0 0 0-6.238 5.32 3.94 3.94 0 0 0-2.075-.586 3.984 3.984 0 0 0-3.992 3.992 3.95 3.95 0 0 0 2.582 3.723H20.16a6.31 6.31 0 0 0 4.828-6.133 6.32 6.32 0 0 0-6.316-6.316" style="stroke:none;fill-rule:nonzero;fill:#f5f6f7;fill-opacity:1"/><path d="M8.95 22.828a3.95 3.95 0 0 1-2.583-3.723 3.984 3.984 0 0 1 3.992-3.992c.758 0 1.477.215 2.075.586a6.32 6.32 0 0 1 6.238-5.32 6.32 6.32 0 0 1 6.316 6.316 6.31 6.31 0 0 1-4.828 6.133ZM18.671 8.98a7.67 7.67 0 0 0-7.172 4.856 5.396 5.396 0 0 0-6.531 5.27 5.38 5.38 0 0 0 3.496 5.035l.234.086h11.63l.16-.04a7.676 7.676 0 0 0 5.898-7.492c0-4.254-3.461-7.715-7.715-7.715" style="stroke:none;fill-rule:nonzero;fill:#2c404b;fill-opacity:1"/><path d="M23.746 18.063a3.89 3.89 0 0 0-3.84 3.273 2.454 2.454 0 0 0-3.734 2.098c0 1.054.656 1.945 1.59 2.289h6.898a3.88 3.88 0 0 0 2.973-3.774 3.89 3.89 0 0 0-3.887-3.887" style="stroke:none;fill-rule:nonzero;fill:#f5f6f7;fill-opacity:1"/><path d="M17.762 25.723a2.43 2.43 0 0 1-1.59-2.29 2.454 2.454 0 0 1 3.734-2.097 3.89 3.89 0 0 1 3.84-3.273 3.89 3.89 0 0 1 3.887 3.886 3.88 3.88 0 0 1-2.973 3.774Zm5.984-9.059a5.27 5.27 0 0 0-4.742 2.93 3.858 3.858 0 0 0-4.23 3.84 3.85 3.85 0 0 0 2.503 3.605l.235.086h7.316l.16-.04a5.26 5.26 0 0 0 4.043-5.136 5.29 5.29 0 0 0-5.285-5.285" style="stroke:none;fill-rule:nonzero;fill:#2c404b;fill-opacity:1"/></svg>