<svg xmlns="http://www.w3.org/2000/svg" width="34pt" height="34pt" viewBox="0 0 34 34"><path d="M5.902 22.703H26.2c-.926.684-2.031 1.2-3.34 1.488l-.164.032H8.832l-.184-.047c-1.093-.274-2.02-.774-2.746-1.473M4.156 19.363h24.809c-.258.532-.547 1.051-.91 1.52H4.594c-.18-.395-.301-.805-.39-1.246ZM25.914 7.523h-10.25a9.1 9.1 0 0 1 5.055-1.52h.031c.105 0 .2 0 .29.017a12 12 0 0 1 2.019.273 8.6 8.6 0 0 1 2.855 1.23M28.86 10.863H12.565c.29-.547.637-1.05 1.032-1.52h14.304c.38.47.7.989.957 1.52M29.828 14.203H5.508c.347-.488.773-.91 1.258-1.277.12-.09.242-.164.367-.242h22.422c.136.5.23 1.02.273 1.52M29.86 16.023c-.047.5-.122 1.016-.243 1.52H4.141a6.4 6.4 0 0 1 .379-1.52Zm0 0" style="stroke:none;fill-rule:nonzero;fill:#2c404b;fill-opacity:1"/><path d="M25.914 7.523h-10.25a9.1 9.1 0 0 1 5.055-1.52h.031c.105 0 .2 0 .29.017a12 12 0 0 1 2.019.273 8.6 8.6 0 0 1 2.855 1.23M28.86 10.863H12.565c.29-.547.637-1.05 1.032-1.52h14.304c.38.47.7.989.957 1.52M29.828 14.203H5.508c.347-.488.773-.91 1.258-1.277.12-.09.242-.164.367-.242h22.422c.136.5.23 1.02.273 1.52M29.86 16.023c-.047.5-.122 1.016-.243 1.52H4.141a6.4 6.4 0 0 1 .379-1.52ZM28.965 19.363c-.258.532-.547 1.051-.91 1.52H4.598a5.7 5.7 0 0 1-.399-1.246l-.043-.274ZM26.2 22.703c-.927.684-2.036 1.2-3.34 1.488l-.165.032H8.832l-.184-.047c-1.09-.274-2.02-.774-2.746-1.473Zm0 0" style="stroke:none;fill-rule:nonzero;fill:#2c404b;fill-opacity:1"/></svg>