<svg xmlns="http://www.w3.org/2000/svg" width="34pt" height="34pt" viewBox="0 0 34 34"><path d="M19.992 10.375c-3.152 0-5.758 2.313-6.238 5.32a3.9 3.9 0 0 0-2.074-.586 3.983 3.983 0 0 0-3.989 3.989 3.95 3.95 0 0 0 2.579 3.726h11.214a6.31 6.31 0 0 0 4.828-6.133c0-3.484-2.835-6.316-6.32-6.316" style="stroke:none;fill-rule:nonzero;fill:#cfd6dc;fill-opacity:1"/><path d="M10.27 22.824a3.95 3.95 0 0 1-2.579-3.726 3.983 3.983 0 0 1 3.989-3.989c.758 0 1.476.211 2.074.586.48-3.008 3.086-5.32 6.238-5.32a6.32 6.32 0 0 1 6.317 6.316 6.306 6.306 0 0 1-4.829 6.133Zm9.722-13.851a7.68 7.68 0 0 0-7.172 4.855 5.396 5.396 0 0 0-6.531 5.27c0 2.242 1.406 4.27 3.496 5.039l.235.086h11.628l.16-.04a7.68 7.68 0 0 0 5.903-7.492c0-4.253-3.461-7.718-7.719-7.718M13.898 33.023a.7.7 0 0 1-.602-1.055l3.5-6a.7.7 0 0 1 1.207.707l-3.5 6a.7.7 0 0 1-.605.348M18.8 33.023a.7.7 0 0 1-.35-.097.7.7 0 0 1-.255-.957l3.5-6a.7.7 0 0 1 1.211.707l-3.5 6a.7.7 0 0 1-.605.347" style="stroke:none;fill-rule:nonzero;fill:#2c404b;fill-opacity:1"/><path d="M8 34a.704.704 0 0 1-.61-1.047l3.239-5.664-3.492.695a.69.69 0 0 1-.715-.293.68.68 0 0 1-.008-.77l5.5-8.503a.7.7 0 1 1 1.172.762l-4.598 7.11 3.375-.677a.702.702 0 0 1 .746 1.035l-4 7A.71.71 0 0 1 8 34" style="stroke:none;fill-rule:nonzero;fill:#2c404b;fill-opacity:1"/></svg>