<svg xmlns="http://www.w3.org/2000/svg" width="34pt" height="34pt" viewBox="0 0 34 34"><path d="m15.152 30.516-1.71-.993 1.71-.992a.705.705 0 0 0 .254-.957.693.693 0 0 0-.949-.258l-1.71.993v-1.985a.7.7 0 0 0-.696-.703.7.7 0 0 0-.696.703v1.985l-1.71-.993a.699.699 0 1 0-.696 1.215l1.707.992-1.707.993a.702.702 0 0 0 .348 1.308.7.7 0 0 0 .348-.094l1.71-.996v1.989a.695.695 0 1 0 1.391 0v-1.989l1.711.996a.694.694 0 0 0 .95-.257.705.705 0 0 0-.255-.957M17.598 33.422a.73.73 0 0 1-.352-.094.7.7 0 0 1-.25-.957l3.5-6a.7.7 0 0 1 .957-.254.7.7 0 0 1 .25.957l-3.5 6a.7.7 0 0 1-.605.348" style="stroke:none;fill-rule:nonzero;fill:#2c404b;fill-opacity:1"/><path d="M19.992 10.375c-3.152 0-5.758 2.313-6.238 5.32a3.9 3.9 0 0 0-2.074-.586 3.983 3.983 0 0 0-3.989 3.989 3.95 3.95 0 0 0 2.579 3.726h11.214a6.31 6.31 0 0 0 4.828-6.133c0-3.484-2.835-6.316-6.32-6.316" style="stroke:none;fill-rule:nonzero;fill:#cfd6dc;fill-opacity:1"/><path d="M10.27 22.824a3.95 3.95 0 0 1-2.579-3.726 3.983 3.983 0 0 1 3.989-3.989c.758 0 1.476.211 2.074.586.48-3.008 3.086-5.32 6.238-5.32a6.32 6.32 0 0 1 6.317 6.316 6.306 6.306 0 0 1-4.829 6.133Zm9.722-13.851a7.68 7.68 0 0 0-7.172 4.855 5.396 5.396 0 0 0-6.531 5.27c0 2.242 1.406 4.27 3.496 5.039l.235.086h11.628l.16-.04a7.68 7.68 0 0 0 5.903-7.492c0-4.253-3.461-7.718-7.719-7.718" style="stroke:none;fill-rule:nonzero;fill:#2c404b;fill-opacity:1"/></svg>