<svg xmlns="http://www.w3.org/2000/svg" width="34pt" height="34pt" viewBox="0 0 34 34"><path d="m12.172 30.516-1.711-.993 1.71-.992a.705.705 0 0 0 .255-.957.693.693 0 0 0-.95-.258l-1.71.993v-1.985a.7.7 0 0 0-.696-.703.7.7 0 0 0-.695.703v1.985l-1.71-.993a.693.693 0 0 0-.95.258.7.7 0 0 0 .254.957l1.71.992-1.71.993a.7.7 0 0 0-.254.957.687.687 0 0 0 .95.257l1.71-.996v1.989a.695.695 0 1 0 1.39 0v-1.989l1.712.996a.694.694 0 0 0 .949-.257.705.705 0 0 0-.254-.957M14.617 33.422a.73.73 0 0 1-.351-.094.7.7 0 0 1-.25-.957l3.5-6a.7.7 0 0 1 .957-.254.7.7 0 0 1 .25.957l-3.5 6a.7.7 0 0 1-.606.348M19.52 33.422a.699.699 0 0 1-.605-1.05l3.5-6a.706.706 0 0 1 .96-.255.7.7 0 0 1 .25.957l-3.5 6a.7.7 0 0 1-.605.348" style="stroke:none;fill-rule:nonzero;fill:#2c404b;fill-opacity:1"/><path d="M20.664 10.375a6.32 6.32 0 0 0-6.238 5.32 3.9 3.9 0 0 0-2.074-.586 3.984 3.984 0 0 0-3.993 3.989 3.95 3.95 0 0 0 2.582 3.726h11.211a6.31 6.31 0 0 0 4.828-6.133 6.32 6.32 0 0 0-6.316-6.316" style="stroke:none;fill-rule:nonzero;fill:#cfd6dc;fill-opacity:1"/><path d="M10.941 22.824a3.95 3.95 0 0 1-2.582-3.726 3.984 3.984 0 0 1 3.993-3.989c.757 0 1.476.211 2.074.586a6.32 6.32 0 0 1 6.238-5.32 6.32 6.32 0 0 1 6.316 6.316 6.31 6.31 0 0 1-4.828 6.133Zm9.723-13.851a7.68 7.68 0 0 0-7.172 4.855 5.396 5.396 0 0 0-6.531 5.27c0 2.242 1.406 4.27 3.496 5.039l.234.086h11.63l.16-.04a7.68 7.68 0 0 0 5.898-7.492c0-4.253-3.461-7.718-7.715-7.718" style="stroke:none;fill-rule:nonzero;fill:#2c404b;fill-opacity:1"/></svg>