<svg xmlns="http://www.w3.org/2000/svg" width="34pt" height="34pt" viewBox="0 0 34 34"><path d="m20.031 30.516-1.71-.993 1.71-.992a.705.705 0 0 0 .254-.957.693.693 0 0 0-.95-.258l-1.71.993v-1.985a.7.7 0 0 0-.695-.703c-.387 0-.7.317-.7.703v1.985l-1.71-.993a.694.694 0 0 0-.95.258.703.703 0 0 0 .258.957l1.707.992-1.707.993a.702.702 0 0 0 .348 1.308.7.7 0 0 0 .344-.094l1.71-.996v1.989a.699.699 0 1 0 1.395 0v-1.989l1.71.996a.694.694 0 0 0 .95-.257.705.705 0 0 0-.254-.957M28.332 30.516l-1.71-.993 1.71-.992a.705.705 0 0 0 .254-.957.7.7 0 0 0-.953-.258l-1.707.993v-1.985a.7.7 0 0 0-.7-.703.7.7 0 0 0-.695.703v1.985l-1.71-.993a.694.694 0 0 0-.95.258.705.705 0 0 0 .254.957l1.71.992-1.71.993a.705.705 0 0 0-.254.957.69.69 0 0 0 .95.257l1.71-.996v1.989a.698.698 0 1 0 1.395 0v-1.989l1.707.996q.17.094.347.094a.7.7 0 0 0 .606-.351.705.705 0 0 0-.254-.957M11.73 30.516l-1.71-.993 1.71-.992a.705.705 0 0 0 .254-.957.693.693 0 0 0-.949-.258l-1.71.993v-1.985a.7.7 0 0 0-.696-.703.7.7 0 0 0-.695.703v1.985l-1.711-.993a.699.699 0 1 0-.696 1.215l1.707.992-1.707.993a.702.702 0 0 0 .348 1.308.7.7 0 0 0 .348-.094l1.71-.996v1.989a.695.695 0 1 0 1.391 0v-1.989l1.711.996a.694.694 0 0 0 .95-.257.705.705 0 0 0-.255-.957" style="stroke:none;fill-rule:nonzero;fill:#2c404b;fill-opacity:1"/><path d="M21.105 10.375a6.32 6.32 0 0 0-6.238 5.32 3.9 3.9 0 0 0-2.074-.586 3.984 3.984 0 0 0-3.992 3.989 3.95 3.95 0 0 0 2.582 3.726h11.21a6.31 6.31 0 0 0 4.829-6.133 6.32 6.32 0 0 0-6.317-6.316" style="stroke:none;fill-rule:nonzero;fill:#cfd6dc;fill-opacity:1"/><path d="M11.383 22.824A3.95 3.95 0 0 1 8.8 19.098a3.986 3.986 0 0 1 3.992-3.989c.758 0 1.477.211 2.074.586a6.32 6.32 0 0 1 6.238-5.32 6.32 6.32 0 0 1 6.317 6.316 6.31 6.31 0 0 1-4.828 6.133Zm9.722-13.851a7.68 7.68 0 0 0-7.171 4.855 5.396 5.396 0 0 0-6.531 5.27c0 2.242 1.406 4.27 3.495 5.039l.235.086h11.629l.16-.04a7.68 7.68 0 0 0 5.898-7.492c0-4.253-3.46-7.718-7.715-7.718" style="stroke:none;fill-rule:nonzero;fill:#2c404b;fill-opacity:1"/></svg>